<?xml version="1.0" encoding="UTF-8"?>
<svg version="1.1" xmlns="http://www.w3.org/2000/svg" width="360" height="354">
<path d="M0 0 C118.8 0 237.6 0 360 0 C360 116.82 360 233.64 360 354 C241.2 354 122.4 354 0 354 C0 237.18 0 120.36 0 0 Z " fill="#2489C9" transform="translate(0,0)"/>
<path d="M0 0 C118.8 0 237.6 0 360 0 C360 116.82 360 233.64 360 354 C241.2 354 122.4 354 0 354 C0 237.18 0 120.36 0 0 Z M245 15 C243.32903967 16.66236191 241.66308373 18.32975809 240 20 C237.41311629 22.47680355 234.80094633 24.92627701 232.1875 27.375 C231.51396484 28.00921875 230.84042969 28.6434375 230.14648438 29.296875 C226.12746363 33.06590881 222.04123578 36.73853318 217.88208008 40.35205078 C215.1237274 42.76726424 212.43454811 45.25339161 209.75 47.75 C208.62385058 48.79313358 207.49754489 49.83609849 206.37109375 50.87890625 C205.81019043 51.39855957 205.24928711 51.91821289 204.67138672 52.45361328 C197.67957563 58.92251942 190.63822149 65.33521739 183.55078125 71.69921875 C177.53414425 77.12617004 171.57264626 82.61446878 165.62890625 88.12109375 C156.02815095 97.01344918 156.02815095 97.01344918 152 100.5 C144.85068825 106.69408012 137.97590488 113.20852631 131.07421875 119.67578125 C130.41623291 120.29187256 129.75824707 120.90796387 129.08032227 121.54272461 C127.81513507 122.72829458 126.55121405 123.91521783 125.28881836 125.10375977 C121.28863041 128.8539017 117.19239419 132.46611378 113 136 C109.88169841 134.56098773 107.29568085 132.82112821 104.578125 130.7265625 C103.72541016 130.07252441 102.87269531 129.41848633 101.99414062 128.74462891 C101.08857422 128.04515137 100.18300781 127.34567383 99.25 126.625 C97.34934998 125.16615627 95.4483046 123.7078275 93.546875 122.25 C92.60650391 121.528125 91.66613281 120.80625 90.69726562 120.0625 C86.98450747 117.22349014 83.24552475 114.42055599 79.5 111.625 C75.25313938 108.45221088 71.02201274 105.26240297 66.82910156 102.01855469 C65.23301459 100.78517159 63.63026827 99.56042125 62.02734375 98.3359375 C60.01842866 96.7858327 58.03085341 95.20764846 56.06640625 93.6015625 C49.4023798 88.27975508 49.4023798 88.27975508 41.21484375 87.26171875 C36.79023671 88.73658776 33.19844541 91.65788919 30 95 C30 95.66 30 96.32 30 97 C29.46375 97.226875 28.9275 97.45375 28.375 97.6875 C25.17539839 99.45570089 22.70962777 101.53670203 20 104 C20 104.66 20 105.32 20 106 C19.443125 106.2475 18.88625 106.495 18.3125 106.75 C15.57589087 108.22924818 13.32349131 109.93467439 11 112 C11 112.66 11 113.32 11 114 C10.34 114 9.68 114 9 114 C6.59167906 117.61248141 6.27639145 118.73874968 7 123 C11.37280403 129.66465952 18.06117139 134.79347808 24 140 C25.62745369 141.45559458 27.25245875 142.91393155 28.875 144.375 C29.69742187 145.11492187 30.51984375 145.85484375 31.3671875 146.6171875 C34.25648429 149.23212969 37.13002843 151.86390165 40 154.5 C48.25823619 162.08441676 56.60966771 169.56219336 65 177 C61.61689132 184.48187496 54.58690479 189.20810347 48.28515625 194.16015625 C45.65600411 196.27696079 43.32246366 198.55199777 41 201 C36.94469501 205.16627105 32.78438675 209.11288127 28.37890625 212.90625 C24.73791851 216.1107975 21.19798676 219.42398917 17.65576172 222.73706055 C15.21462945 225.00849439 12.82908886 227.12777308 10.15234375 229.12890625 C7.61219374 230.9520754 7.61219374 230.9520754 7.25 234.75 C7.82615553 242.95263526 16.59358278 248.59561271 22.30078125 253.62109375 C24.21206404 255.3055673 26.10386099 257.00055688 27.98046875 258.72265625 C28.47385742 259.17527832 28.96724609 259.62790039 29.47558594 260.09423828 C30.86810313 261.37373554 32.26023361 262.65365363 33.65234375 263.93359375 C37.41912811 267.24911609 39.65294007 268.23651358 44.671875 268.4609375 C51.87051797 267.03570282 58.04611751 261.06444374 63.6875 256.6875 C65.55937834 255.24802473 67.43178737 253.80923932 69.3046875 252.37109375 C70.72539551 251.27837158 70.72539551 251.27837158 72.17480469 250.16357422 C77.34959172 246.20064968 82.56560363 242.29261936 87.79589844 238.40332031 C91.78790422 235.43122818 95.74236301 232.42844211 99.6328125 229.32421875 C100.36072998 228.75219727 101.08864746 228.18017578 101.83862305 227.59082031 C103.20086193 226.51776207 104.55211873 225.43055675 105.88989258 224.32714844 C107.71484375 222.90234375 107.71484375 222.90234375 111 221 C115.21049966 221.67712714 117.4566651 224.15415433 120.3125 227.1875 C123.04469985 230.01391364 125.76686981 232.75192737 128.75 235.3125 C132.36917159 238.41979672 135.8779394 241.6320231 139.375 244.875 C144.03921375 249.19770161 148.7369439 253.47816852 153.47265625 257.72265625 C156.33082242 260.2980981 159.16706617 262.89689696 162 265.5 C168.08762314 271.09185997 174.22812532 276.6232153 180.38671875 282.13671875 C185.69450166 286.89748377 190.94830408 291.71246275 196.18066406 296.55566406 C200.24575409 300.31449657 204.34967771 304.02734486 208.47265625 307.72265625 C211.33082203 310.29809775 214.16710261 312.89685764 217 315.5 C220.64927171 318.85293117 224.31169598 322.18998357 228 325.5 C231.68831014 328.81002192 235.35022615 332.14761084 239 335.5 C240.01033508 336.42587029 241.02075111 337.35165225 242.03125 338.27734375 C243.97326063 340.0564638 245.90975112 341.84101992 247.84375 343.62890625 C248.7203125 344.43199219 249.596875 345.23507812 250.5 346.0625 C251.2734375 346.77535156 252.046875 347.48820312 252.84375 348.22265625 C256.92825231 351.58941087 260.22526966 352.5069584 265.44873047 352.37890625 C270.40689998 351.64253505 274.64628053 349.27256915 279.0625 347 C279.98482422 346.54238281 280.90714844 346.08476562 281.85742188 345.61328125 C284.91371762 344.09242516 287.95670705 342.54670028 291 341 C293.46488645 339.7578205 295.93063911 338.51761237 298.3984375 337.28125 C299.06262695 336.94838989 299.72681641 336.61552979 300.41113281 336.27258301 C305.18277988 333.88898479 309.97515079 331.55058708 314.7766571 329.2277832 C318.44514917 327.45015534 322.10633487 325.65776471 325.7668457 323.86376953 C327.64364191 322.9482352 329.52358838 322.039133 331.40649414 321.13623047 C334.17686536 319.80589778 336.93475028 318.45223097 339.69140625 317.09375 C340.93997154 316.50430603 340.93997154 316.50430603 342.21376038 315.9029541 C348.06557687 312.97956769 352.23805365 309.38689726 356 304 C356.91734319 301.24797043 357.12741964 299.62744273 357.13422108 296.79291916 C357.14090784 295.49983672 357.14090784 295.49983672 357.14772969 294.1806314 C357.14754533 293.23308053 357.14736097 292.28552967 357.14717102 291.30926514 C357.15268605 289.79987252 357.15268605 289.79987252 357.1583125 288.25998712 C357.16936719 284.87221287 357.1731962 281.48446928 357.17700195 278.09667969 C357.18326521 275.67412722 357.18991188 273.25157571 357.19691467 270.82902527 C357.21615392 263.54801696 357.2267443 256.26701117 357.23564246 248.98598516 C357.24002615 245.55698326 357.24539273 242.12798291 357.25063133 238.69898224 C357.26764263 227.29995418 357.28213693 215.90092708 357.28938007 204.50188828 C357.29128996 201.54406483 357.29321029 198.58624139 357.29516602 195.62841797 C357.29564976 194.8932688 357.2961335 194.15811963 357.2966319 193.40069321 C357.30493273 181.4909898 357.33027094 169.58138682 357.36274669 157.67172727 C357.39581862 145.44373228 357.41382893 133.21578833 357.41702431 120.98774838 C357.41918924 114.12237142 357.42793525 107.25714093 357.45348549 100.39180756 C357.47746426 93.93383045 357.48101731 87.47604545 357.47072411 81.01803017 C357.47022756 78.64727464 357.47658273 76.27650633 357.49028015 73.90579033 C357.50793155 70.66976556 357.50092543 67.43469434 357.48774719 64.19866943 C357.49871644 63.26004145 357.50968568 62.32141347 357.52098733 61.35434222 C357.46229904 55.38704859 356.4811809 51.88869215 353 47 C348.21755647 43.10847367 342.49573657 40.72398581 336.9375 38.125 C334.87078829 37.14778118 332.80439723 36.169884 330.73828125 35.19140625 C329.64467285 34.67465332 328.55106445 34.15790039 327.42431641 33.62548828 C322.08977654 31.09323629 316.77442184 28.5214598 311.45907593 25.94924927 C309.62427737 25.06215062 307.7884982 24.17711442 305.95239258 23.29272461 C299.90393557 20.37825657 293.86547655 17.44593097 287.84375 14.4765625 C286.71114746 13.92218506 285.57854492 13.36780762 284.41162109 12.79663086 C282.2804761 11.75322151 280.15294219 10.70239117 278.02978516 9.64282227 C264.58494012 3.08809207 256.14263176 5.03669787 245 15 Z " fill="#F7F7F7" transform="translate(0,0)"/>
<path d="M0 0 C1.18659966 0.58397552 1.18659966 0.58397552 2.39717102 1.17974854 C4.94372864 2.43523674 7.48348717 3.70386274 10.0234375 4.97265625 C11.78406087 5.84326773 13.54521343 6.71280985 15.30688477 7.58129883 C18.77180695 9.28987199 22.23486488 11.00213487 25.69677734 12.71679688 C31.54938695 15.60970726 37.43713608 18.42515379 43.3359375 21.22265625 C45.90253609 22.44861565 48.4682178 23.67647374 51.03369141 24.90478516 C52.62336947 25.66466637 54.21421208 26.42211564 55.80615234 27.17724609 C58.05034787 28.24464712 60.28759163 29.32539806 62.5234375 30.41015625 C63.15757568 30.70817139 63.79171387 31.00618652 64.44506836 31.31323242 C69.88546551 33.9828836 74.0437653 37.37423158 76.3984375 43.03515625 C76.65143716 45.10766679 76.65143716 45.10766679 76.65570641 47.36528492 C76.6621553 48.22933093 76.66860419 49.09337694 76.6752485 49.98360616 C76.6706027 51.4005632 76.6706027 51.4005632 76.66586304 52.84614563 C76.67039415 53.8532618 76.67492526 54.86037797 76.67959368 55.89801282 C76.69228395 59.28272211 76.69061432 62.66727145 76.68896484 66.05200195 C76.69494722 68.47470304 76.70175208 70.89740222 76.70932007 73.32009888 C76.72517787 79.22414046 76.73142977 85.12814436 76.73254482 91.03220288 C76.73349521 95.83182478 76.73760504 100.63143352 76.74394608 105.43105125 C76.76155994 119.04033522 76.7707848 132.64958765 76.76928513 146.2588831 C76.76920522 146.99257033 76.7691253 147.72625756 76.76904297 148.48217773 C76.76896121 149.2167614 76.76887945 149.95134507 76.76879521 150.70818885 C76.76798242 162.61136846 76.78711772 174.51442149 76.8153197 186.41756449 C76.84405206 198.64107809 76.85785978 210.86452997 76.85613215 223.0880782 C76.85546833 229.95007782 76.86095677 236.81194477 76.88248825 243.67391396 C76.90260951 250.12781283 76.90202268 256.58150389 76.88745499 263.03541946 C76.88536072 265.40455852 76.89010437 267.77371494 76.9021759 270.14282417 C76.91758637 273.37661913 76.90834711 276.60944227 76.89291382 279.84321594 C76.90320094 280.7811618 76.91348807 281.71910766 76.92408693 282.68547612 C76.84619708 290.06890497 75.08551762 294.39368601 69.70874023 299.67919922 C65.92007251 302.58442904 61.70767796 304.63924125 57.43359375 306.73046875 C56.57146774 307.16006897 55.70934174 307.58966919 54.8210907 308.0322876 C52.03825963 309.41624478 49.24981843 310.78843725 46.4609375 312.16015625 C44.54498386 313.1096572 42.62929437 314.05969137 40.71386719 315.01025391 C29.17057224 320.72892678 17.5965866 326.38011195 5.9375 331.859375 C2.99393253 333.24990593 0.10182649 334.7008806 -2.765625 336.2421875 C-9.26331288 339.72729593 -14.11397332 342.24283192 -21.6015625 341.03515625 C-24.1640625 339.53515625 -24.1640625 339.53515625 -25.6015625 338.03515625 C-23.0856136 336.72686282 -20.75023325 335.75137983 -18.0390625 334.84765625 C-14.36294163 332.90933797 -13.64206611 331.79571086 -12.17931175 328.02438354 C-11.21792831 324.71427942 -11.1425885 321.42456802 -11.1340332 318.0078125 C-11.12074478 317.23774872 -11.10745636 316.46768494 -11.09376526 315.67428589 C-11.05532003 313.1486357 -11.03951408 310.62356152 -11.02734375 308.09765625 C-11.01260934 306.33080935 -10.99772971 304.56396365 -10.98271179 302.79711914 C-10.95578978 299.10201372 -10.94218798 295.4071084 -10.93579102 291.71191406 C-10.92490379 286.98686018 -10.86311505 282.26393273 -10.7890749 277.539505 C-10.74062111 273.89336023 -10.72826173 270.24772704 -10.72572899 266.60128784 C-10.71851722 264.85974659 -10.69811552 263.11820617 -10.66402626 261.37698364 C-10.19330903 251.99661915 -10.19330903 251.99661915 -13.3157196 243.46784973 C-15.33217257 241.67370696 -17.256974 240.35755461 -19.6015625 239.03515625 C-20.81362581 238.13603867 -22.01727872 237.22531391 -23.20703125 236.296875 C-24.39865464 235.43549024 -25.59272516 234.57748195 -26.7890625 233.72265625 C-32.56271813 229.54086974 -38.24807255 225.2654989 -43.88671875 220.90234375 C-54.9573679 212.34054432 -66.10883198 203.88029975 -77.3203125 195.50390625 C-82.85931913 191.34965128 -88.35155969 187.13318197 -93.85620117 182.93359375 C-100.41312818 177.93376611 -106.99024377 172.96284723 -113.6015625 168.03515625 C-110.14468585 164.44483399 -106.5887232 161.36294653 -102.6015625 158.34765625 C-101.43481352 157.46104581 -100.26814903 156.57432418 -99.1015625 155.6875 C-98.51375 155.2426123 -97.9259375 154.79772461 -97.3203125 154.33935547 C-94.73568559 152.37812295 -92.16960489 150.39303273 -89.6015625 148.41015625 C-82.96639189 143.3006207 -76.301262 138.23042778 -69.63867188 133.15673828 C-63.79031903 128.70300887 -57.9433008 124.24755947 -52.1015625 119.78515625 C-51.41416992 119.26074951 -50.72677734 118.73634277 -50.01855469 118.19604492 C-49.37563477 117.70467041 -48.73271484 117.2132959 -48.0703125 116.70703125 C-47.47347656 116.25134766 -46.87664062 115.79566406 -46.26171875 115.32617188 C-44.73620992 114.13986442 -43.24506523 112.90971071 -41.7578125 111.67578125 C-39.6015625 110.03515625 -39.6015625 110.03515625 -37.6015625 110.03515625 C-37.6015625 109.37515625 -37.6015625 108.71515625 -37.6015625 108.03515625 C-36.125 106.9140625 -36.125 106.9140625 -33.9765625 105.59765625 C-28.79843691 102.28596827 -24.06101127 98.51862319 -19.30029297 94.64282227 C-14.81144595 91.03515625 -14.81144595 91.03515625 -12.6015625 91.03515625 C-11.41003915 82.52538883 -11.40098455 74.04275925 -11.36328125 65.46875 C-11.35920572 64.6816118 -11.3551302 63.89447361 -11.35093117 63.08348274 C-11.33019416 58.92455444 -11.31583418 54.76565801 -11.30639648 50.60668945 C-11.29529868 46.33087755 -11.26082499 42.05558117 -11.22122478 37.77995205 C-11.1950173 34.47096325 -11.1867015 31.16209744 -11.18311501 27.85301399 C-11.17826748 26.27704408 -11.16670619 24.70107898 -11.14807701 23.12521172 C-10.87766425 11.43796032 -10.87766425 11.43796032 -15.6015625 1.03515625 C-19.13139579 -1.10462084 -22.52538963 -1.49451611 -26.6015625 -1.96484375 C-25.6015625 -3.96484375 -25.6015625 -3.96484375 -22.1015625 -5.21484375 C-14.18310399 -7.00158269 -6.96033557 -3.51387048 0 0 Z " fill="#3C99D3" transform="translate(280.6015625,10.96484375)"/>
<path d="M0 0 C3.20685603 0.39590815 4.81501125 1.07930493 7.21484375 3.2734375 C10.55669757 8.46244588 11.80570784 13.17702184 11.74829102 19.35424805 C11.75690659 20.11791687 11.76552216 20.88158569 11.7743988 21.668396 C11.79690756 24.16600448 11.79035143 26.66247775 11.78125 29.16015625 C11.78649027 30.90794708 11.79276822 32.65573509 11.80003357 34.40351868 C11.81040824 38.05406066 11.80591566 41.70421206 11.79125977 45.35473633 C11.77402756 50.02904945 11.79763645 54.7021384 11.83274937 59.37631512 C11.8547155 62.98035296 11.85328468 66.58409706 11.84498405 70.18818092 C11.84416504 71.9117448 11.85101904 73.63533033 11.86575508 75.35883141 C11.88319889 77.76692457 11.8686658 80.17280598 11.84594727 82.58081055 C11.86348557 83.64305595 11.86348557 83.64305595 11.88137817 84.72676086 C11.80827603 88.53976654 11.33580449 90.12783864 8.86827087 93.09797668 C5.89237237 95.53782156 2.91218036 97.9564755 -0.16015625 100.2734375 C-0.73161377 100.70769043 -1.30307129 101.14194336 -1.8918457 101.58935547 C-3.51922027 102.82232013 -5.15203519 104.04809451 -6.78515625 105.2734375 C-7.55472656 105.85351562 -8.32429687 106.43359375 -9.1171875 107.03125 C-13.51729911 110.2734375 -13.51729911 110.2734375 -15.78515625 110.2734375 C-15.78515625 110.9334375 -15.78515625 111.5934375 -15.78515625 112.2734375 C-18.0402749 114.10456926 -20.30864688 115.82321205 -22.66015625 117.5234375 C-24.13264549 118.60653145 -25.60395521 119.69123041 -27.07421875 120.77734375 C-28.2329248 121.63223389 -28.2329248 121.63223389 -29.41503906 122.50439453 C-33.33496374 125.43020564 -37.18382432 128.44574731 -41.03515625 131.4609375 C-46.95843851 136.08863901 -52.91699558 140.65430342 -58.9453125 145.14453125 C-61.45488941 147.02585094 -63.94661729 148.9280684 -66.42871094 150.84545898 C-68.03814883 152.08824833 -69.6516935 153.325554 -71.265625 154.5625 C-73.86732977 156.55851292 -76.44697435 158.58091042 -79.0234375 160.609375 C-80.46449183 161.7270164 -81.90589325 162.84421043 -83.34765625 163.9609375 C-84.02666992 164.50274658 -84.70568359 165.04455566 -85.40527344 165.6027832 C-86.04754883 166.09609131 -86.68982422 166.58939941 -87.3515625 167.09765625 C-87.91818604 167.54197998 -88.48480957 167.98630371 -89.06860352 168.4440918 C-90.78515625 169.2734375 -90.78515625 169.2734375 -92.74902344 169.09375 C-95.12554312 168.13630322 -96.79914992 166.92949527 -98.796875 165.32421875 C-99.55548828 164.72287109 -100.31410156 164.12152344 -101.09570312 163.50195312 C-101.88009766 162.86966797 -102.66449219 162.23738281 -103.47265625 161.5859375 C-108.87231035 157.25984563 -114.26468853 153.1840343 -120.14379883 149.52416992 C-120.68544678 149.11142822 -121.22709473 148.69868652 -121.78515625 148.2734375 C-121.78515625 147.6134375 -121.78515625 146.9534375 -121.78515625 146.2734375 C-122.35733887 146.00539307 -122.92952148 145.73734863 -123.51904297 145.46118164 C-125.86679647 144.23064719 -127.90549817 142.8354639 -130.04296875 141.26953125 C-131.22826172 140.40618164 -131.22826172 140.40618164 -132.4375 139.52539062 C-133.25347656 138.92662109 -134.06945312 138.32785156 -134.91015625 137.7109375 C-136.53682096 136.52085025 -138.164382 135.33198689 -139.79296875 134.14453125 C-140.5111377 133.61786865 -141.22930664 133.09120605 -141.96923828 132.54858398 C-143.75937429 131.22465731 -143.75937429 131.22465731 -145.78515625 130.2734375 C-145.20952815 126.89259708 -144.20776004 125.36100313 -141.6875 123.06640625 C-141.05005859 122.47923828 -140.41261719 121.89207031 -139.75585938 121.28710938 C-139.08490234 120.68447266 -138.41394531 120.08183594 -137.72265625 119.4609375 C-137.07876953 118.86990234 -136.43488281 118.27886719 -135.77148438 117.66992188 C-132.49118363 114.6708832 -129.16587272 111.72882411 -125.80859375 108.81640625 C-121.57963561 105.1306927 -117.52872552 101.27219581 -113.47265625 97.3984375 C-107.95292236 92.15591771 -102.3650355 87.2146563 -96.40234375 82.484375 C-92.73620431 79.38730795 -89.41099968 75.99556283 -86.05126953 72.57324219 C-82.8086757 69.27472338 -79.48664728 66.17049846 -75.96875 63.171875 C-73.05857527 60.64174098 -70.23711796 58.02082983 -67.41015625 55.3984375 C-63.55925123 51.82901045 -59.69637856 48.2769754 -55.78515625 44.7734375 C-51.91852953 41.30853823 -48.09505986 37.80034813 -44.28515625 34.2734375 C-38.8289011 29.22387949 -33.32225563 24.23431841 -27.78515625 19.2734375 C-26.07669635 17.73191109 -24.36836341 16.19024397 -22.66015625 14.6484375 C-18.96540817 11.32025498 -15.23877403 8.03293178 -11.4765625 4.78125 C-9.75725432 3.31341828 -9.75725432 3.31341828 -8.3359375 1.6015625 C-5.76169768 -0.60307613 -3.25051437 -0.13697467 0 0 Z " fill="#0B75B8" transform="translate(258.78515625,8.7265625)"/>
<path d="M0 0 C0.66 0 1.32 0 2 0 C2 51.48 2 102.96 2 156 C-0.84767119 154.5761644 -2.9632584 153.39989554 -5.43359375 151.53125 C-6.39604004 150.80651489 -6.39604004 150.80651489 -7.37792969 150.06713867 C-8.39741699 149.29140503 -8.39741699 149.29140503 -9.4375 148.5 C-10.15196289 147.96028564 -10.86642578 147.42057129 -11.60253906 146.86450195 C-16.89586325 142.85910986 -22.15262383 138.80725585 -27.40625 134.75 C-31.82394342 131.35567134 -36.28916841 128.02479101 -40.75 124.6875 C-49.11251922 118.42951287 -57.42329672 112.10780395 -65.71191406 105.75244141 C-77.43062741 96.77709736 -89.16473164 87.82131803 -101 79 C-97.54312335 75.40967774 -93.9871607 72.32779028 -90 69.3125 C-88.83325102 68.42588956 -87.66658653 67.53916793 -86.5 66.65234375 C-85.9121875 66.20745605 -85.324375 65.76256836 -84.71875 65.30419922 C-82.13412309 63.3429667 -79.56804239 61.35787648 -77 59.375 C-70.36482939 54.26546445 -63.6996995 49.19527153 -57.03710938 44.12158203 C-51.18875653 39.66785262 -45.3417383 35.21240322 -39.5 30.75 C-38.81260742 30.22559326 -38.12521484 29.70118652 -37.41699219 29.16088867 C-36.77407227 28.66951416 -36.13115234 28.17813965 -35.46875 27.671875 C-34.87191406 27.21619141 -34.27507812 26.76050781 -33.66015625 26.29101562 C-32.13464742 25.10470817 -30.64350273 23.87455446 -29.15625 22.640625 C-27 21 -27 21 -25 21 C-25 20.34 -25 19.68 -25 19 C-23.5234375 17.87890625 -23.5234375 17.87890625 -21.375 16.5625 C-16.19687441 13.25081202 -11.45944877 9.48346694 -6.69873047 5.60766602 C-2.20988345 2 -2.20988345 2 0 2 C0 1.34 0 0.68 0 0 Z " fill="#F2F2F2" transform="translate(268,100)"/>
<path d="M0 0 C0.495 0.99 0.495 0.99 1 2 C2.32646156 2.6802367 3.66093665 3.34491865 5 4 C6.28187437 4.95880034 7.5331293 5.95993957 8.75 7 C9.36359375 7.515625 9.9771875 8.03125 10.609375 8.5625 C12 10 12 10 12 12 C12.88945312 12.39638672 12.88945312 12.39638672 13.796875 12.80078125 C16.08029054 14.04370425 17.47426723 15.30401646 19.25 17.1875 C23.80717996 21.88218108 28.54692744 26.36461829 34 30 C34 30.66 34 31.32 34 32 C34.66 32 35.32 32 36 32 C36 32.66 36 33.32 36 34 C36.556875 34.226875 37.11375 34.45375 37.6875 34.6875 C40.63246684 36.35896766 42.68156544 38.55276352 45 41 C40.70818937 45.60520856 35.87462285 49.21559293 30.8125 52.9375 C24.12309595 57.90076352 17.48983684 62.91966049 10.9375 68.0625 C4.54241886 73.06554223 -1.9145486 77.97721414 -8.4375 82.8125 C-9.24904541 83.41779541 -10.06059082 84.02309082 -10.89672852 84.64672852 C-12.02872681 85.48095337 -12.02872681 85.48095337 -13.18359375 86.33203125 C-13.84931396 86.82421143 -14.51503418 87.3163916 -15.20092773 87.82348633 C-19.11720903 90.38456104 -23.46569865 90.81234774 -28 90 C-30.71001879 88.51002665 -32.82911555 86.56069076 -35.0625 84.4375 C-35.67174316 83.88682861 -36.28098633 83.33615723 -36.90869141 82.76879883 C-40.51427598 79.48453746 -44.03067338 76.1069137 -47.41015625 72.58984375 C-49.90395084 70.09604916 -52.60279072 67.84676929 -55.30078125 65.578125 C-58.16006029 62.92261067 -58.98108372 61.11349769 -59.625 57.25 C-59.55825677 54.49918072 -59.33996997 53.37393442 -57.47021484 51.31738281 C-56.80715332 50.78467773 -56.1440918 50.25197266 -55.4609375 49.703125 C-52.56073832 47.2988348 -49.73749974 44.87024529 -47 42.28125 C-46.34 41.65863281 -45.68 41.03601563 -45 40.39453125 C-44.34 39.76933594 -43.68 39.14414063 -43 38.5 C-36.94317971 32.76258234 -30.86106716 27.05293682 -24.3125 21.875 C-22.23575701 20.19115433 -20.39331907 18.39815692 -18.51391602 16.50244141 C-15.50874916 13.52005198 -12.40485126 10.64139342 -9.3125 7.75 C-8.63638672 7.11320313 -7.96027344 6.47640625 -7.26367188 5.8203125 C-6.61591797 5.21445313 -5.96816406 4.60859375 -5.30078125 3.984375 C-4.71466064 3.43491211 -4.12854004 2.88544922 -3.5246582 2.31933594 C-2 1 -2 1 0 0 Z " fill="#0B75B8" transform="translate(67,178)"/>
<path d="M0 0 C4.95 0 9.9 0 15 0 C15 0.99 15 1.98 15 3 C15.66 3.33 16.32 3.66 17 4 C12.94040387 8.17377227 8.76775813 12.12397797 4.359375 15.92578125 C1.40135701 18.52629044 -1.48694182 21.19729416 -4.375 23.875 C-8.22600689 27.44432001 -12.088775 30.99645969 -16 34.5 C-19.88893729 37.98423487 -23.73149399 41.51496522 -27.5625 45.0625 C-29.70686323 47.04326486 -31.85304885 49.02204086 -34 51 C-35.36511719 52.25876953 -35.36511719 52.25876953 -36.7578125 53.54296875 C-37.55960938 54.27128906 -38.36140625 54.99960938 -39.1875 55.75 C-39.88230469 56.38421875 -40.57710937 57.0184375 -41.29296875 57.671875 C-43 59 -43 59 -45 59 C-45 54.38 -45 49.76 -45 45 C-40.05 45 -35.1 45 -30 45 C-30 40.05 -30 35.1 -30 30 C-25.05 30 -20.1 30 -15 30 C-15 25.05 -15 20.1 -15 15 C-10.05 15 -5.1 15 0 15 C0 10.05 0 5.1 0 0 Z " fill="#FEFEFE" transform="translate(225,15)"/>
<path d="M0 0 C0 3.63 0 7.26 0 11 C4.95 11 9.9 11 15 11 C15 15.95 15 20.9 15 26 C19.95 26 24.9 26 30 26 C30 30.95 30 35.9 30 41 C34.95 41 39.9 41 45 41 C45 44.96 45 48.92 45 53 C39.51232284 50.04840341 34.74299549 46.62681175 29.875 42.75 C28.28722752 41.50032418 26.69865177 40.25166843 25.109375 39.00390625 C24.27986328 38.35180176 23.45035156 37.69969727 22.59570312 37.02783203 C18.134695 33.54277433 13.63061976 30.1145716 9.125 26.6875 C8.24030029 26.01428711 7.35560059 25.34107422 6.4440918 24.64746094 C-0.01632702 19.73688854 -6.49359357 14.84949547 -13 10 C-3.10084034 0 -3.10084034 0 0 0 Z " fill="#FEFEFE" transform="translate(180,169)"/>
<path d="M0 0 C4.95 0 9.9 0 15 0 C14.96744792 2.79947917 14.93489583 5.59895833 14.90234375 8.3984375 C14.81993398 10.98432453 14.81993398 10.98432453 16 13 C15.40832031 13.08636719 14.81664062 13.17273438 14.20703125 13.26171875 C8.57735973 14.26275333 5.85743834 15.5581013 2 20 C1.34 20 0.68 20 0 20 C0 20.66 0 21.32 0 22 C-1.79296875 23.55078125 -1.79296875 23.55078125 -4.1875 25.3125 C-7.74541392 28.00181522 -10.92618631 30.75541888 -14 34 C-15.62836738 35.7041054 -17.28769752 37.38025441 -19 39 C-19.66 39 -20.32 39 -21 39 C-21.66 40.98 -22.32 42.96 -23 45 C-25.31 45 -27.62 45 -30 45 C-30 40.05 -30 35.1 -30 30 C-25.05 30 -20.1 30 -15 30 C-15 25.05 -15 20.1 -15 15 C-10.05 15 -5.1 15 0 15 C0 10.05 0 5.1 0 0 Z " fill="#EDEEEE" transform="translate(30,75)"/>
<path d="M0 0 C4.95 0 9.9 0 15 0 C17.34435937 12.77675855 17.34435937 12.77675855 14.96630859 16.70947266 C12.22404432 19.85318789 8.99971693 22.38534398 5.609375 24.79711914 C3.95572501 26.03309206 2.52401579 27.39690016 1.02734375 28.81640625 C-4.18875169 32.57872541 -8.83601908 30.81767094 -15 30 C-15 25.05 -15 20.1 -15 15 C-10.05 15 -5.1 15 0 15 C0 10.05 0 5.1 0 0 Z " fill="#EEEEEE" transform="translate(165,60)"/>
<path d="M0 0 C4.95 0 9.9 0 15 0 C16.50464476 4.57662781 17.09113757 6.40463217 16 11 C11.64512769 16.8567604 5.59933822 21.38916435 0 26 C-1.34652263 27.14649116 -2.69049215 28.2959913 -4.03125 29.44921875 C-5.50078125 30.71185547 -5.50078125 30.71185547 -7 32 C-12.9425448 29.05290331 -12.9425448 29.05290331 -15 27 C-15.54287502 22.94472362 -15.17669783 19.10822455 -15 15 C-10.05 15 -5.1 15 0 15 C0 10.05 0 5.1 0 0 Z " fill="#EDEEEE" transform="translate(120,105)"/>
<path d="M0 0 C3.08102727 2.247065 5.67884356 4.90147367 8.328125 7.6328125 C10.2576978 9.57049275 12.2556721 11.38584248 14.3125 13.1875 C14.97507812 13.77144531 15.63765625 14.35539063 16.3203125 14.95703125 C18.299677 16.66163199 18.299677 16.66163199 21.1875 18.375 C23.60332517 20.94181424 23.48398096 21.82192438 23.5 25.25 C23.396875 26.6525 23.29375 28.055 23.1875 29.5 C18.2375 29.5 13.2875 29.5 8.1875 29.5 C8.1875 24.55 8.1875 19.6 8.1875 14.5 C3.2375 14.5 -1.7125 14.5 -6.8125 14.5 C-6.8125 9.55 -6.8125 4.6 -6.8125 -0.5 C-2.8125 -1.5 -2.8125 -1.5 0 0 Z " fill="#FEFEFE" transform="translate(36.8125,150.5)"/>
<path d="M0 0 C1.98 1.65 3.96 3.3 6 5 C2.66659987 12.59274474 -5.45813451 19.08592263 -12 24 C-12.66 24 -13.32 24 -14 24 C-14.33 24.99 -14.66 25.98 -15 27 C-16.70703125 28.71875 -16.70703125 28.71875 -18.8125 30.5 C-19.49957031 31.0878125 -20.18664063 31.675625 -20.89453125 32.28125 C-21.58933594 32.8484375 -22.28414062 33.415625 -23 34 C-23.68449219 34.5671875 -24.36898437 35.134375 -25.07421875 35.71875 C-27 37 -27 37 -30 37 C-30 32.38 -30 27.76 -30 23 C-25.05 23 -20.1 23 -15 23 C-15 18.05 -15 13.1 -15 8 C-10.05 8 -5.1 8 0 8 C0 5.36 0 2.72 0 0 Z " fill="#ECEEEF" transform="translate(60,172)"/>
<path d="M0 0 C0.66 0.33 1.32 0.66 2 1 C1.67 3.64 1.34 6.28 1 9 C-3.95 9 -8.9 9 -14 9 C-14 13.95 -14 18.9 -14 24 C-18.95 24 -23.9 24 -29 24 C-29 20.7 -29 17.4 -29 14 C-27.89543457 13.47043701 -27.89543457 13.47043701 -26.76855469 12.93017578 C-23.42887243 11.32879235 -20.08943367 9.72690177 -16.75 8.125 C-15.59113281 7.56941406 -14.43226563 7.01382812 -13.23828125 6.44140625 C-12.12324219 5.90644531 -11.00820313 5.37148438 -9.859375 4.8203125 C-8.83295898 4.32805176 -7.80654297 3.83579102 -6.74902344 3.32861328 C-5.06476852 2.5146066 -3.39599374 1.66615166 -1.75878906 0.76123047 C-1.17838867 0.51002441 -0.59798828 0.25881836 0 0 Z " fill="#FEFEFE" transform="translate(329,321)"/>
<path d="M0 0 C0.66 0 1.32 0 2 0 C2 16.17 2 32.34 2 49 C1.67 49 1.34 49 1 49 C1 44.38 1 39.76 1 35 C-3.62 35 -8.24 35 -13 35 C-13 30.05 -13 25.1 -13 20 C-8.38 20 -3.76 20 1 20 C1 15.05 1 10.1 1 5 C-0.32 5 -1.64 5 -3 5 C-2.67 4.01 -2.34 3.02 -2 2 C-1.34 2 -0.68 2 0 2 C0 1.34 0 0.68 0 0 Z " fill="#EDEEEE" transform="translate(268,100)"/>
<path d="M0 0 C0 9.9 0 19.8 0 30 C-0.33 30 -0.66 30 -1 30 C-1 25.38 -1 20.76 -1 16 C-5.62 16 -10.24 16 -15 16 C-15 11.05 -15 6.1 -15 1 C-1.125 0 -1.125 0 0 0 Z " fill="#EEEEEE" transform="translate(270,179)"/>
<path d="M0 0 C2.36278562 4.30860907 0.56573336 10.31690282 0.0625 14.9375 C-4.8875 14.9375 -9.8375 14.9375 -14.9375 14.9375 C-14.9375 9.9875 -14.9375 5.0375 -14.9375 -0.0625 C-2.57015306 -1.40943878 -2.57015306 -1.40943878 0 0 Z " fill="#FFFFFF" transform="translate(134.9375,240.0625)"/>
<path d="M0 0 C4.95 0 9.9 0 15 0 C15.33 4.62 15.66 9.24 16 14 C11.02179569 17.31880288 5.82252509 15.57648763 0 15 C0 10.05 0 5.1 0 0 Z " fill="#ECEDED" transform="translate(150,75)"/>
<path d="M0 0 C4.95 0 9.9 0 15 0 C15 4.95 15 9.9 15 15 C10.05 15 5.1 15 0 15 C0 10.05 0 5.1 0 0 Z " fill="#EEEEEE" transform="translate(345,330)"/>
<path d="M0 0 C4.95 0 9.9 0 15 0 C15 4.95 15 9.9 15 15 C10.05 15 5.1 15 0 15 C0 10.05 0 5.1 0 0 Z " fill="#FFFFFF" transform="translate(330,330)"/>
<path d="M0 0 C4.95 0 9.9 0 15 0 C15 4.95 15 9.9 15 15 C10.05 15 5.1 15 0 15 C0 10.05 0 5.1 0 0 Z " fill="#EEEEEE" transform="translate(315,330)"/>
<path d="M0 0 C4.95 0 9.9 0 15 0 C15 4.95 15 9.9 15 15 C10.05 15 5.1 15 0 15 C0 10.05 0 5.1 0 0 Z " fill="#FFFFFF" transform="translate(210,330)"/>
<path d="M0 0 C4.95 0 9.9 0 15 0 C15 4.95 15 9.9 15 15 C10.05 15 5.1 15 0 15 C0 10.05 0 5.1 0 0 Z " fill="#EEEEEE" transform="translate(195,330)"/>
<path d="M0 0 C4.95 0 9.9 0 15 0 C15 4.95 15 9.9 15 15 C10.05 15 5.1 15 0 15 C0 10.05 0 5.1 0 0 Z " fill="#FFFFFF" transform="translate(180,330)"/>
<path d="M0 0 C4.95 0 9.9 0 15 0 C15 4.95 15 9.9 15 15 C10.05 15 5.1 15 0 15 C0 10.05 0 5.1 0 0 Z " fill="#EEEEEE" transform="translate(165,330)"/>
<path d="M0 0 C4.95 0 9.9 0 15 0 C15 4.95 15 9.9 15 15 C10.05 15 5.1 15 0 15 C0 10.05 0 5.1 0 0 Z " fill="#FFFFFF" transform="translate(150,330)"/>
<path d="M0 0 C4.95 0 9.9 0 15 0 C15 4.95 15 9.9 15 15 C10.05 15 5.1 15 0 15 C0 10.05 0 5.1 0 0 Z " fill="#EEEEEE" transform="translate(135,330)"/>
<path d="M0 0 C4.95 0 9.9 0 15 0 C15 4.95 15 9.9 15 15 C10.05 15 5.1 15 0 15 C0 10.05 0 5.1 0 0 Z " fill="#FFFFFF" transform="translate(120,330)"/>
<path d="M0 0 C4.95 0 9.9 0 15 0 C15 4.95 15 9.9 15 15 C10.05 15 5.1 15 0 15 C0 10.05 0 5.1 0 0 Z " fill="#EEEEEE" transform="translate(105,330)"/>
<path d="M0 0 C4.95 0 9.9 0 15 0 C15 4.95 15 9.9 15 15 C10.05 15 5.1 15 0 15 C0 10.05 0 5.1 0 0 Z " fill="#FFFFFF" transform="translate(90,330)"/>
<path d="M0 0 C4.95 0 9.9 0 15 0 C15 4.95 15 9.9 15 15 C10.05 15 5.1 15 0 15 C0 10.05 0 5.1 0 0 Z " fill="#EEEEEE" transform="translate(75,330)"/>
<path d="M0 0 C4.95 0 9.9 0 15 0 C15 4.95 15 9.9 15 15 C10.05 15 5.1 15 0 15 C0 10.05 0 5.1 0 0 Z " fill="#FFFFFF" transform="translate(60,330)"/>
<path d="M0 0 C4.95 0 9.9 0 15 0 C15 4.95 15 9.9 15 15 C10.05 15 5.1 15 0 15 C0 10.05 0 5.1 0 0 Z " fill="#EEEEEE" transform="translate(45,330)"/>
<path d="M0 0 C4.95 0 9.9 0 15 0 C15 4.95 15 9.9 15 15 C10.05 15 5.1 15 0 15 C0 10.05 0 5.1 0 0 Z " fill="#FFFFFF" transform="translate(30,330)"/>
<path d="M0 0 C4.95 0 9.9 0 15 0 C15 4.95 15 9.9 15 15 C10.05 15 5.1 15 0 15 C0 10.05 0 5.1 0 0 Z " fill="#EEEEEE" transform="translate(15,330)"/>
<path d="M0 0 C4.95 0 9.9 0 15 0 C15 4.95 15 9.9 15 15 C10.05 15 5.1 15 0 15 C0 10.05 0 5.1 0 0 Z " fill="#FFFFFF" transform="translate(345,315)"/>
<path d="M0 0 C4.95 0 9.9 0 15 0 C15 4.95 15 9.9 15 15 C10.05 15 5.1 15 0 15 C0 10.05 0 5.1 0 0 Z " fill="#FFFFFF" transform="translate(195,315)"/>
<path d="M0 0 C4.95 0 9.9 0 15 0 C15 4.95 15 9.9 15 15 C10.05 15 5.1 15 0 15 C0 10.05 0 5.1 0 0 Z " fill="#EEEEEE" transform="translate(180,315)"/>
<path d="M0 0 C4.95 0 9.9 0 15 0 C15 4.95 15 9.9 15 15 C10.05 15 5.1 15 0 15 C0 10.05 0 5.1 0 0 Z " fill="#FFFFFF" transform="translate(165,315)"/>
<path d="M0 0 C4.95 0 9.9 0 15 0 C15 4.95 15 9.9 15 15 C10.05 15 5.1 15 0 15 C0 10.05 0 5.1 0 0 Z " fill="#EEEEEE" transform="translate(150,315)"/>
<path d="M0 0 C4.95 0 9.9 0 15 0 C15 4.95 15 9.9 15 15 C10.05 15 5.1 15 0 15 C0 10.05 0 5.1 0 0 Z " fill="#FFFFFF" transform="translate(135,315)"/>
<path d="M0 0 C4.95 0 9.9 0 15 0 C15 4.95 15 9.9 15 15 C10.05 15 5.1 15 0 15 C0 10.05 0 5.1 0 0 Z " fill="#EEEEEE" transform="translate(120,315)"/>
<path d="M0 0 C4.95 0 9.9 0 15 0 C15 4.95 15 9.9 15 15 C10.05 15 5.1 15 0 15 C0 10.05 0 5.1 0 0 Z " fill="#FFFFFF" transform="translate(105,315)"/>
<path d="M0 0 C4.95 0 9.9 0 15 0 C15 4.95 15 9.9 15 15 C10.05 15 5.1 15 0 15 C0 10.05 0 5.1 0 0 Z " fill="#EEEEEE" transform="translate(90,315)"/>
<path d="M0 0 C4.95 0 9.9 0 15 0 C15 4.95 15 9.9 15 15 C10.05 15 5.1 15 0 15 C0 10.05 0 5.1 0 0 Z " fill="#FFFFFF" transform="translate(75,315)"/>
<path d="M0 0 C4.95 0 9.9 0 15 0 C15 4.95 15 9.9 15 15 C10.05 15 5.1 15 0 15 C0 10.05 0 5.1 0 0 Z " fill="#EEEEEE" transform="translate(60,315)"/>
<path d="M0 0 C4.95 0 9.9 0 15 0 C15 4.95 15 9.9 15 15 C10.05 15 5.1 15 0 15 C0 10.05 0 5.1 0 0 Z " fill="#FFFFFF" transform="translate(45,315)"/>
<path d="M0 0 C4.95 0 9.9 0 15 0 C15 4.95 15 9.9 15 15 C10.05 15 5.1 15 0 15 C0 10.05 0 5.1 0 0 Z " fill="#EEEEEE" transform="translate(30,315)"/>
<path d="M0 0 C4.95 0 9.9 0 15 0 C15 4.95 15 9.9 15 15 C10.05 15 5.1 15 0 15 C0 10.05 0 5.1 0 0 Z " fill="#FFFFFF" transform="translate(15,315)"/>
<path d="M0 0 C4.95 0 9.9 0 15 0 C15 4.95 15 9.9 15 15 C10.05 15 5.1 15 0 15 C0 10.05 0 5.1 0 0 Z " fill="#EEEEEE" transform="translate(0,315)"/>
<path d="M0 0 C4.95 0 9.9 0 15 0 C15 4.95 15 9.9 15 15 C10.05 15 5.1 15 0 15 C0 10.05 0 5.1 0 0 Z " fill="#FFFFFF" transform="translate(180,300)"/>
<path d="M0 0 C4.95 0 9.9 0 15 0 C15 4.95 15 9.9 15 15 C10.05 15 5.1 15 0 15 C0 10.05 0 5.1 0 0 Z " fill="#EEEEEE" transform="translate(165,300)"/>
<path d="M0 0 C4.95 0 9.9 0 15 0 C15 4.95 15 9.9 15 15 C10.05 15 5.1 15 0 15 C0 10.05 0 5.1 0 0 Z " fill="#FFFFFF" transform="translate(150,300)"/>
<path d="M0 0 C4.95 0 9.9 0 15 0 C15 4.95 15 9.9 15 15 C10.05 15 5.1 15 0 15 C0 10.05 0 5.1 0 0 Z " fill="#EEEEEE" transform="translate(135,300)"/>
<path d="M0 0 C4.95 0 9.9 0 15 0 C15 4.95 15 9.9 15 15 C10.05 15 5.1 15 0 15 C0 10.05 0 5.1 0 0 Z " fill="#FFFFFF" transform="translate(120,300)"/>
<path d="M0 0 C4.95 0 9.9 0 15 0 C15 4.95 15 9.9 15 15 C10.05 15 5.1 15 0 15 C0 10.05 0 5.1 0 0 Z " fill="#EEEEEE" transform="translate(105,300)"/>
<path d="M0 0 C4.95 0 9.9 0 15 0 C15 4.95 15 9.9 15 15 C10.05 15 5.1 15 0 15 C0 10.05 0 5.1 0 0 Z " fill="#FFFFFF" transform="translate(90,300)"/>
<path d="M0 0 C4.95 0 9.9 0 15 0 C15 4.95 15 9.9 15 15 C10.05 15 5.1 15 0 15 C0 10.05 0 5.1 0 0 Z " fill="#EEEEEE" transform="translate(75,300)"/>
<path d="M0 0 C4.95 0 9.9 0 15 0 C15 4.95 15 9.9 15 15 C10.05 15 5.1 15 0 15 C0 10.05 0 5.1 0 0 Z " fill="#FFFFFF" transform="translate(60,300)"/>
<path d="M0 0 C4.95 0 9.9 0 15 0 C15 4.95 15 9.9 15 15 C10.05 15 5.1 15 0 15 C0 10.05 0 5.1 0 0 Z " fill="#EEEEEE" transform="translate(45,300)"/>
<path d="M0 0 C4.95 0 9.9 0 15 0 C15 4.95 15 9.9 15 15 C10.05 15 5.1 15 0 15 C0 10.05 0 5.1 0 0 Z " fill="#FFFFFF" transform="translate(30,300)"/>
<path d="M0 0 C4.95 0 9.9 0 15 0 C15 4.95 15 9.9 15 15 C10.05 15 5.1 15 0 15 C0 10.05 0 5.1 0 0 Z " fill="#EEEEEE" transform="translate(15,300)"/>
<path d="M0 0 C4.95 0 9.9 0 15 0 C15 4.95 15 9.9 15 15 C10.05 15 5.1 15 0 15 C0 10.05 0 5.1 0 0 Z " fill="#FFFFFF" transform="translate(0,300)"/>
<path d="M0 0 C4.95 0 9.9 0 15 0 C15 4.95 15 9.9 15 15 C10.05 15 5.1 15 0 15 C0 10.05 0 5.1 0 0 Z " fill="#FFFFFF" transform="translate(165,285)"/>
<path d="M0 0 C4.95 0 9.9 0 15 0 C15 4.95 15 9.9 15 15 C10.05 15 5.1 15 0 15 C0 10.05 0 5.1 0 0 Z " fill="#EEEEEE" transform="translate(150,285)"/>
<path d="M0 0 C4.95 0 9.9 0 15 0 C15 4.95 15 9.9 15 15 C10.05 15 5.1 15 0 15 C0 10.05 0 5.1 0 0 Z " fill="#FFFFFF" transform="translate(135,285)"/>
<path d="M0 0 C4.95 0 9.9 0 15 0 C15 4.95 15 9.9 15 15 C10.05 15 5.1 15 0 15 C0 10.05 0 5.1 0 0 Z " fill="#EEEEEE" transform="translate(120,285)"/>
<path d="M0 0 C4.95 0 9.9 0 15 0 C15 4.95 15 9.9 15 15 C10.05 15 5.1 15 0 15 C0 10.05 0 5.1 0 0 Z " fill="#FFFFFF" transform="translate(105,285)"/>
<path d="M0 0 C4.95 0 9.9 0 15 0 C15 4.95 15 9.9 15 15 C10.05 15 5.1 15 0 15 C0 10.05 0 5.1 0 0 Z " fill="#EEEEEE" transform="translate(90,285)"/>
<path d="M0 0 C4.95 0 9.9 0 15 0 C15 4.95 15 9.9 15 15 C10.05 15 5.1 15 0 15 C0 10.05 0 5.1 0 0 Z " fill="#FFFFFF" transform="translate(75,285)"/>
<path d="M0 0 C4.95 0 9.9 0 15 0 C15 4.95 15 9.9 15 15 C10.05 15 5.1 15 0 15 C0 10.05 0 5.1 0 0 Z " fill="#EEEEEE" transform="translate(60,285)"/>
<path d="M0 0 C4.95 0 9.9 0 15 0 C15 4.95 15 9.9 15 15 C10.05 15 5.1 15 0 15 C0 10.05 0 5.1 0 0 Z " fill="#FFFFFF" transform="translate(45,285)"/>
<path d="M0 0 C4.95 0 9.9 0 15 0 C15 4.95 15 9.9 15 15 C10.05 15 5.1 15 0 15 C0 10.05 0 5.1 0 0 Z " fill="#EEEEEE" transform="translate(30,285)"/>
<path d="M0 0 C4.95 0 9.9 0 15 0 C15 4.95 15 9.9 15 15 C10.05 15 5.1 15 0 15 C0 10.05 0 5.1 0 0 Z " fill="#FFFFFF" transform="translate(15,285)"/>
<path d="M0 0 C4.95 0 9.9 0 15 0 C15 4.95 15 9.9 15 15 C10.05 15 5.1 15 0 15 C0 10.05 0 5.1 0 0 Z " fill="#EEEEEE" transform="translate(0,285)"/>
<path d="M0 0 C4.95 0 9.9 0 15 0 C15 4.95 15 9.9 15 15 C10.05 15 5.1 15 0 15 C0 10.05 0 5.1 0 0 Z " fill="#FFFFFF" transform="translate(150,270)"/>
<path d="M0 0 C4.95 0 9.9 0 15 0 C15 4.95 15 9.9 15 15 C10.05 15 5.1 15 0 15 C0 10.05 0 5.1 0 0 Z " fill="#EEEEEE" transform="translate(135,270)"/>
<path d="M0 0 C4.95 0 9.9 0 15 0 C15 4.95 15 9.9 15 15 C10.05 15 5.1 15 0 15 C0 10.05 0 5.1 0 0 Z " fill="#FFFFFF" transform="translate(120,270)"/>
<path d="M0 0 C4.95 0 9.9 0 15 0 C15 4.95 15 9.9 15 15 C10.05 15 5.1 15 0 15 C0 10.05 0 5.1 0 0 Z " fill="#EEEEEE" transform="translate(105,270)"/>
<path d="M0 0 C4.95 0 9.9 0 15 0 C15 4.95 15 9.9 15 15 C10.05 15 5.1 15 0 15 C0 10.05 0 5.1 0 0 Z " fill="#FFFFFF" transform="translate(90,270)"/>
<path d="M0 0 C4.95 0 9.9 0 15 0 C15 4.95 15 9.9 15 15 C10.05 15 5.1 15 0 15 C0 10.05 0 5.1 0 0 Z " fill="#EEEEEE" transform="translate(75,270)"/>
<path d="M0 0 C4.95 0 9.9 0 15 0 C15 4.95 15 9.9 15 15 C10.05 15 5.1 15 0 15 C0 10.05 0 5.1 0 0 Z " fill="#FFFFFF" transform="translate(60,270)"/>
<path d="M0 0 C4.95 0 9.9 0 15 0 C15 4.95 15 9.9 15 15 C10.05 15 5.1 15 0 15 C0 10.05 0 5.1 0 0 Z " fill="#EEEEEE" transform="translate(45,270)"/>
<path d="M0 0 C4.95 0 9.9 0 15 0 C15 4.95 15 9.9 15 15 C10.05 15 5.1 15 0 15 C0 10.05 0 5.1 0 0 Z " fill="#EEEEEE" transform="translate(15,270)"/>
<path d="M0 0 C4.95 0 9.9 0 15 0 C15 4.95 15 9.9 15 15 C10.05 15 5.1 15 0 15 C0 10.05 0 5.1 0 0 Z " fill="#FFFFFF" transform="translate(0,270)"/>
<path d="M0 0 C4.95 0 9.9 0 15 0 C15 4.95 15 9.9 15 15 C10.05 15 5.1 15 0 15 C0 10.05 0 5.1 0 0 Z " fill="#EEEEEE" transform="translate(120,255)"/>
<path d="M0 0 C4.95 0 9.9 0 15 0 C15 4.95 15 9.9 15 15 C10.05 15 5.1 15 0 15 C0 10.05 0 5.1 0 0 Z " fill="#FFFFFF" transform="translate(105,255)"/>
<path d="M0 0 C4.95 0 9.9 0 15 0 C15 4.95 15 9.9 15 15 C10.05 15 5.1 15 0 15 C0 10.05 0 5.1 0 0 Z " fill="#EEEEEE" transform="translate(90,255)"/>
<path d="M0 0 C4.95 0 9.9 0 15 0 C15 4.95 15 9.9 15 15 C10.05 15 5.1 15 0 15 C0 10.05 0 5.1 0 0 Z " fill="#FFFFFF" transform="translate(75,255)"/>
<path d="M0 0 C4.95 0 9.9 0 15 0 C15 4.95 15 9.9 15 15 C10.05 15 5.1 15 0 15 C0 10.05 0 5.1 0 0 Z " fill="#EEEEEE" transform="translate(0,255)"/>
<path d="M0 0 C4.95 0 9.9 0 15 0 C15 4.95 15 9.9 15 15 C10.05 15 5.1 15 0 15 C0 10.05 0 5.1 0 0 Z " fill="#EEEEEE" transform="translate(105,240)"/>
<path d="M0 0 C4.95 0 9.9 0 15 0 C15 4.95 15 9.9 15 15 C10.05 15 5.1 15 0 15 C0 10.05 0 5.1 0 0 Z " fill="#FFFFFF" transform="translate(90,240)"/>
<path d="M0 0 C4.95 0 9.9 0 15 0 C15 4.95 15 9.9 15 15 C10.05 15 5.1 15 0 15 C0 10.05 0 5.1 0 0 Z " fill="#FFFFFF" transform="translate(240,210)"/>
<path d="M0 0 C4.95 0 9.9 0 15 0 C15 4.95 15 9.9 15 15 C10.05 15 5.1 15 0 15 C0 10.05 0 5.1 0 0 Z " fill="#EEEEEE" transform="translate(240,195)"/>
<path d="M0 0 C4.95 0 9.9 0 15 0 C15 4.95 15 9.9 15 15 C10.05 15 5.1 15 0 15 C0 10.05 0 5.1 0 0 Z " fill="#FFFFFF" transform="translate(225,195)"/>
<path d="M0 0 C4.95 0 9.9 0 15 0 C15 4.95 15 9.9 15 15 C10.05 15 5.1 15 0 15 C0 10.05 0 5.1 0 0 Z " fill="#EEEEEE" transform="translate(210,195)"/>
<path d="M0 0 C4.95 0 9.9 0 15 0 C15 4.95 15 9.9 15 15 C10.05 15 5.1 15 0 15 C0 10.05 0 5.1 0 0 Z " fill="#EEEEEE" transform="translate(0,195)"/>
<path d="M0 0 C4.95 0 9.9 0 15 0 C15 4.95 15 9.9 15 15 C10.05 15 5.1 15 0 15 C0 10.05 0 5.1 0 0 Z " fill="#FFFFFF" transform="translate(240,180)"/>
<path d="M0 0 C4.95 0 9.9 0 15 0 C15 4.95 15 9.9 15 15 C10.05 15 5.1 15 0 15 C0 10.05 0 5.1 0 0 Z " fill="#EEEEEE" transform="translate(225,180)"/>
<path d="M0 0 C4.95 0 9.9 0 15 0 C15 4.95 15 9.9 15 15 C10.05 15 5.1 15 0 15 C0 10.05 0 5.1 0 0 Z " fill="#FFFFFF" transform="translate(210,180)"/>
<path d="M0 0 C4.95 0 9.9 0 15 0 C15 4.95 15 9.9 15 15 C10.05 15 5.1 15 0 15 C0 10.05 0 5.1 0 0 Z " fill="#EEEEEE" transform="translate(195,180)"/>
<path d="M0 0 C4.95 0 9.9 0 15 0 C15 4.95 15 9.9 15 15 C10.05 15 5.1 15 0 15 C0 10.05 0 5.1 0 0 Z " fill="#FFFFFF" transform="translate(30,180)"/>
<path d="M0 0 C4.95 0 9.9 0 15 0 C15 4.95 15 9.9 15 15 C10.05 15 5.1 15 0 15 C0 10.05 0 5.1 0 0 Z " fill="#EEEEEE" transform="translate(15,180)"/>
<path d="M0 0 C4.95 0 9.9 0 15 0 C15 4.95 15 9.9 15 15 C10.05 15 5.1 15 0 15 C0 10.05 0 5.1 0 0 Z " fill="#FFFFFF" transform="translate(0,180)"/>
<path d="M0 0 C4.95 0 9.9 0 15 0 C15 4.95 15 9.9 15 15 C10.05 15 5.1 15 0 15 C0 10.05 0 5.1 0 0 Z " fill="#EEEEEE" transform="translate(240,165)"/>
<path d="M0 0 C4.95 0 9.9 0 15 0 C15 4.95 15 9.9 15 15 C10.05 15 5.1 15 0 15 C0 10.05 0 5.1 0 0 Z " fill="#FFFFFF" transform="translate(225,165)"/>
<path d="M0 0 C4.95 0 9.9 0 15 0 C15 4.95 15 9.9 15 15 C10.05 15 5.1 15 0 15 C0 10.05 0 5.1 0 0 Z " fill="#EEEEEE" transform="translate(210,165)"/>
<path d="M0 0 C4.95 0 9.9 0 15 0 C15 4.95 15 9.9 15 15 C10.05 15 5.1 15 0 15 C0 10.05 0 5.1 0 0 Z " fill="#FFFFFF" transform="translate(195,165)"/>
<path d="M0 0 C4.95 0 9.9 0 15 0 C15 4.95 15 9.9 15 15 C10.05 15 5.1 15 0 15 C0 10.05 0 5.1 0 0 Z " fill="#EEEEEE" transform="translate(30,165)"/>
<path d="M0 0 C4.95 0 9.9 0 15 0 C15 4.95 15 9.9 15 15 C10.05 15 5.1 15 0 15 C0 10.05 0 5.1 0 0 Z " fill="#FFFFFF" transform="translate(15,165)"/>
<path d="M0 0 C4.95 0 9.9 0 15 0 C15 4.95 15 9.9 15 15 C10.05 15 5.1 15 0 15 C0 10.05 0 5.1 0 0 Z " fill="#EEEEEE" transform="translate(0,165)"/>
<path d="M0 0 C4.95 0 9.9 0 15 0 C15 4.95 15 9.9 15 15 C10.05 15 5.1 15 0 15 C0 10.05 0 5.1 0 0 Z " fill="#FFFFFF" transform="translate(240,150)"/>
<path d="M0 0 C4.95 0 9.9 0 15 0 C15 4.95 15 9.9 15 15 C10.05 15 5.1 15 0 15 C0 10.05 0 5.1 0 0 Z " fill="#EEEEEE" transform="translate(225,150)"/>
<path d="M0 0 C4.95 0 9.9 0 15 0 C15 4.95 15 9.9 15 15 C10.05 15 5.1 15 0 15 C0 10.05 0 5.1 0 0 Z " fill="#FFFFFF" transform="translate(210,150)"/>
<path d="M0 0 C4.95 0 9.9 0 15 0 C15 4.95 15 9.9 15 15 C10.05 15 5.1 15 0 15 C0 10.05 0 5.1 0 0 Z " fill="#EEEEEE" transform="translate(15,150)"/>
<path d="M0 0 C4.95 0 9.9 0 15 0 C15 4.95 15 9.9 15 15 C10.05 15 5.1 15 0 15 C0 10.05 0 5.1 0 0 Z " fill="#FFFFFF" transform="translate(0,150)"/>
<path d="M0 0 C4.95 0 9.9 0 15 0 C15 4.95 15 9.9 15 15 C10.05 15 5.1 15 0 15 C0 10.05 0 5.1 0 0 Z " fill="#EEEEEE" transform="translate(0,135)"/>
<path d="M0 0 C4.95 0 9.9 0 15 0 C15 4.95 15 9.9 15 15 C10.05 15 5.1 15 0 15 C0 10.05 0 5.1 0 0 Z " fill="#FFFFFF" transform="translate(120,90)"/>
<path d="M0 0 C4.95 0 9.9 0 15 0 C15 4.95 15 9.9 15 15 C10.05 15 5.1 15 0 15 C0 10.05 0 5.1 0 0 Z " fill="#EEEEEE" transform="translate(105,90)"/>
<path d="M0 0 C4.95 0 9.9 0 15 0 C15 4.95 15 9.9 15 15 C10.05 15 5.1 15 0 15 C0 10.05 0 5.1 0 0 Z " fill="#FFFFFF" transform="translate(90,90)"/>
<path d="M0 0 C4.95 0 9.9 0 15 0 C15 4.95 15 9.9 15 15 C10.05 15 5.1 15 0 15 C0 10.05 0 5.1 0 0 Z " fill="#EEEEEE" transform="translate(75,90)"/>
<path d="M0 0 C4.95 0 9.9 0 15 0 C15 4.95 15 9.9 15 15 C10.05 15 5.1 15 0 15 C0 10.05 0 5.1 0 0 Z " fill="#FFFFFF" transform="translate(0,90)"/>
<path d="M0 0 C4.95 0 9.9 0 15 0 C15 4.95 15 9.9 15 15 C10.05 15 5.1 15 0 15 C0 10.05 0 5.1 0 0 Z " fill="#FFFFFF" transform="translate(135,75)"/>
<path d="M0 0 C4.95 0 9.9 0 15 0 C15 4.95 15 9.9 15 15 C10.05 15 5.1 15 0 15 C0 10.05 0 5.1 0 0 Z " fill="#EEEEEE" transform="translate(120,75)"/>
<path d="M0 0 C4.95 0 9.9 0 15 0 C15 4.95 15 9.9 15 15 C10.05 15 5.1 15 0 15 C0 10.05 0 5.1 0 0 Z " fill="#FFFFFF" transform="translate(105,75)"/>
<path d="M0 0 C4.95 0 9.9 0 15 0 C15 4.95 15 9.9 15 15 C10.05 15 5.1 15 0 15 C0 10.05 0 5.1 0 0 Z " fill="#EEEEEE" transform="translate(90,75)"/>
<path d="M0 0 C4.95 0 9.9 0 15 0 C15 4.95 15 9.9 15 15 C10.05 15 5.1 15 0 15 C0 10.05 0 5.1 0 0 Z " fill="#FFFFFF" transform="translate(75,75)"/>
<path d="M0 0 C4.95 0 9.9 0 15 0 C15 4.95 15 9.9 15 15 C10.05 15 5.1 15 0 15 C0 10.05 0 5.1 0 0 Z " fill="#EEEEEE" transform="translate(60,75)"/>
<path d="M0 0 C4.95 0 9.9 0 15 0 C15 4.95 15 9.9 15 15 C10.05 15 5.1 15 0 15 C0 10.05 0 5.1 0 0 Z " fill="#FFFFFF" transform="translate(15,75)"/>
<path d="M0 0 C4.95 0 9.9 0 15 0 C15 4.95 15 9.9 15 15 C10.05 15 5.1 15 0 15 C0 10.05 0 5.1 0 0 Z " fill="#EEEEEE" transform="translate(0,75)"/>
<path d="M0 0 C4.95 0 9.9 0 15 0 C15 4.95 15 9.9 15 15 C10.05 15 5.1 15 0 15 C0 10.05 0 5.1 0 0 Z " fill="#FFFFFF" transform="translate(150,60)"/>
<path d="M0 0 C4.95 0 9.9 0 15 0 C15 4.95 15 9.9 15 15 C10.05 15 5.1 15 0 15 C0 10.05 0 5.1 0 0 Z " fill="#EEEEEE" transform="translate(135,60)"/>
<path d="M0 0 C4.95 0 9.9 0 15 0 C15 4.95 15 9.9 15 15 C10.05 15 5.1 15 0 15 C0 10.05 0 5.1 0 0 Z " fill="#FFFFFF" transform="translate(120,60)"/>
<path d="M0 0 C4.95 0 9.9 0 15 0 C15 4.95 15 9.9 15 15 C10.05 15 5.1 15 0 15 C0 10.05 0 5.1 0 0 Z " fill="#EEEEEE" transform="translate(105,60)"/>
<path d="M0 0 C4.95 0 9.9 0 15 0 C15 4.95 15 9.9 15 15 C10.05 15 5.1 15 0 15 C0 10.05 0 5.1 0 0 Z " fill="#FFFFFF" transform="translate(90,60)"/>
<path d="M0 0 C4.95 0 9.9 0 15 0 C15 4.95 15 9.9 15 15 C10.05 15 5.1 15 0 15 C0 10.05 0 5.1 0 0 Z " fill="#EEEEEE" transform="translate(75,60)"/>
<path d="M0 0 C4.95 0 9.9 0 15 0 C15 4.95 15 9.9 15 15 C10.05 15 5.1 15 0 15 C0 10.05 0 5.1 0 0 Z " fill="#FFFFFF" transform="translate(60,60)"/>
<path d="M0 0 C4.95 0 9.9 0 15 0 C15 4.95 15 9.9 15 15 C10.05 15 5.1 15 0 15 C0 10.05 0 5.1 0 0 Z " fill="#EEEEEE" transform="translate(45,60)"/>
<path d="M0 0 C4.95 0 9.9 0 15 0 C15 4.95 15 9.9 15 15 C10.05 15 5.1 15 0 15 C0 10.05 0 5.1 0 0 Z " fill="#FFFFFF" transform="translate(30,60)"/>
<path d="M0 0 C4.95 0 9.9 0 15 0 C15 4.95 15 9.9 15 15 C10.05 15 5.1 15 0 15 C0 10.05 0 5.1 0 0 Z " fill="#EEEEEE" transform="translate(15,60)"/>
<path d="M0 0 C4.95 0 9.9 0 15 0 C15 4.95 15 9.9 15 15 C10.05 15 5.1 15 0 15 C0 10.05 0 5.1 0 0 Z " fill="#FFFFFF" transform="translate(0,60)"/>
<path d="M0 0 C4.95 0 9.9 0 15 0 C15 4.95 15 9.9 15 15 C10.05 15 5.1 15 0 15 C0 10.05 0 5.1 0 0 Z " fill="#EEEEEE" transform="translate(180,45)"/>
<path d="M0 0 C4.95 0 9.9 0 15 0 C15 4.95 15 9.9 15 15 C10.05 15 5.1 15 0 15 C0 10.05 0 5.1 0 0 Z " fill="#FFFFFF" transform="translate(165,45)"/>
<path d="M0 0 C4.95 0 9.9 0 15 0 C15 4.95 15 9.9 15 15 C10.05 15 5.1 15 0 15 C0 10.05 0 5.1 0 0 Z " fill="#EEEEEE" transform="translate(150,45)"/>
<path d="M0 0 C4.95 0 9.9 0 15 0 C15 4.95 15 9.9 15 15 C10.05 15 5.1 15 0 15 C0 10.05 0 5.1 0 0 Z " fill="#FFFFFF" transform="translate(135,45)"/>
<path d="M0 0 C4.95 0 9.9 0 15 0 C15 4.95 15 9.9 15 15 C10.05 15 5.1 15 0 15 C0 10.05 0 5.1 0 0 Z " fill="#EEEEEE" transform="translate(120,45)"/>
<path d="M0 0 C4.95 0 9.9 0 15 0 C15 4.95 15 9.9 15 15 C10.05 15 5.1 15 0 15 C0 10.05 0 5.1 0 0 Z " fill="#FFFFFF" transform="translate(105,45)"/>
<path d="M0 0 C4.95 0 9.9 0 15 0 C15 4.95 15 9.9 15 15 C10.05 15 5.1 15 0 15 C0 10.05 0 5.1 0 0 Z " fill="#EEEEEE" transform="translate(90,45)"/>
<path d="M0 0 C4.95 0 9.9 0 15 0 C15 4.95 15 9.9 15 15 C10.05 15 5.1 15 0 15 C0 10.05 0 5.1 0 0 Z " fill="#FFFFFF" transform="translate(75,45)"/>
<path d="M0 0 C4.95 0 9.9 0 15 0 C15 4.95 15 9.9 15 15 C10.05 15 5.1 15 0 15 C0 10.05 0 5.1 0 0 Z " fill="#EEEEEE" transform="translate(60,45)"/>
<path d="M0 0 C4.95 0 9.9 0 15 0 C15 4.95 15 9.9 15 15 C10.05 15 5.1 15 0 15 C0 10.05 0 5.1 0 0 Z " fill="#FFFFFF" transform="translate(45,45)"/>
<path d="M0 0 C4.95 0 9.9 0 15 0 C15 4.95 15 9.9 15 15 C10.05 15 5.1 15 0 15 C0 10.05 0 5.1 0 0 Z " fill="#EEEEEE" transform="translate(30,45)"/>
<path d="M0 0 C4.95 0 9.9 0 15 0 C15 4.95 15 9.9 15 15 C10.05 15 5.1 15 0 15 C0 10.05 0 5.1 0 0 Z " fill="#FFFFFF" transform="translate(15,45)"/>
<path d="M0 0 C4.95 0 9.9 0 15 0 C15 4.95 15 9.9 15 15 C10.05 15 5.1 15 0 15 C0 10.05 0 5.1 0 0 Z " fill="#EEEEEE" transform="translate(0,45)"/>
<path d="M0 0 C4.95 0 9.9 0 15 0 C15 4.95 15 9.9 15 15 C10.05 15 5.1 15 0 15 C0 10.05 0 5.1 0 0 Z " fill="#EEEEEE" transform="translate(195,30)"/>
<path d="M0 0 C4.95 0 9.9 0 15 0 C15 4.95 15 9.9 15 15 C10.05 15 5.1 15 0 15 C0 10.05 0 5.1 0 0 Z " fill="#FFFFFF" transform="translate(180,30)"/>
<path d="M0 0 C4.95 0 9.9 0 15 0 C15 4.95 15 9.9 15 15 C10.05 15 5.1 15 0 15 C0 10.05 0 5.1 0 0 Z " fill="#EEEEEE" transform="translate(165,30)"/>
<path d="M0 0 C4.95 0 9.9 0 15 0 C15 4.95 15 9.9 15 15 C10.05 15 5.1 15 0 15 C0 10.05 0 5.1 0 0 Z " fill="#FFFFFF" transform="translate(150,30)"/>
<path d="M0 0 C4.95 0 9.9 0 15 0 C15 4.95 15 9.9 15 15 C10.05 15 5.1 15 0 15 C0 10.05 0 5.1 0 0 Z " fill="#EEEEEE" transform="translate(135,30)"/>
<path d="M0 0 C4.95 0 9.9 0 15 0 C15 4.95 15 9.9 15 15 C10.05 15 5.1 15 0 15 C0 10.05 0 5.1 0 0 Z " fill="#FFFFFF" transform="translate(120,30)"/>
<path d="M0 0 C4.95 0 9.9 0 15 0 C15 4.95 15 9.9 15 15 C10.05 15 5.1 15 0 15 C0 10.05 0 5.1 0 0 Z " fill="#EEEEEE" transform="translate(105,30)"/>
<path d="M0 0 C4.95 0 9.9 0 15 0 C15 4.95 15 9.9 15 15 C10.05 15 5.1 15 0 15 C0 10.05 0 5.1 0 0 Z " fill="#FFFFFF" transform="translate(90,30)"/>
<path d="M0 0 C4.95 0 9.9 0 15 0 C15 4.95 15 9.9 15 15 C10.05 15 5.1 15 0 15 C0 10.05 0 5.1 0 0 Z " fill="#EEEEEE" transform="translate(75,30)"/>
<path d="M0 0 C4.95 0 9.9 0 15 0 C15 4.95 15 9.9 15 15 C10.05 15 5.1 15 0 15 C0 10.05 0 5.1 0 0 Z " fill="#FFFFFF" transform="translate(60,30)"/>
<path d="M0 0 C4.95 0 9.9 0 15 0 C15 4.95 15 9.9 15 15 C10.05 15 5.1 15 0 15 C0 10.05 0 5.1 0 0 Z " fill="#EEEEEE" transform="translate(45,30)"/>
<path d="M0 0 C4.95 0 9.9 0 15 0 C15 4.95 15 9.9 15 15 C10.05 15 5.1 15 0 15 C0 10.05 0 5.1 0 0 Z " fill="#FFFFFF" transform="translate(30,30)"/>
<path d="M0 0 C4.95 0 9.9 0 15 0 C15 4.95 15 9.9 15 15 C10.05 15 5.1 15 0 15 C0 10.05 0 5.1 0 0 Z " fill="#EEEEEE" transform="translate(15,30)"/>
<path d="M0 0 C4.95 0 9.9 0 15 0 C15 4.95 15 9.9 15 15 C10.05 15 5.1 15 0 15 C0 10.05 0 5.1 0 0 Z " fill="#FFFFFF" transform="translate(0,30)"/>
<path d="M0 0 C4.95 0 9.9 0 15 0 C15 4.95 15 9.9 15 15 C10.05 15 5.1 15 0 15 C0 10.05 0 5.1 0 0 Z " fill="#FFFFFF" transform="translate(345,15)"/>
<path d="M0 0 C4.95 0 9.9 0 15 0 C15 4.95 15 9.9 15 15 C10.05 15 5.1 15 0 15 C0 10.05 0 5.1 0 0 Z " fill="#EEEEEE" transform="translate(330,15)"/>
<path d="M0 0 C4.95 0 9.9 0 15 0 C15 4.95 15 9.9 15 15 C10.05 15 5.1 15 0 15 C0 10.05 0 5.1 0 0 Z " fill="#EEEEEE" transform="translate(210,15)"/>
<path d="M0 0 C4.95 0 9.9 0 15 0 C15 4.95 15 9.9 15 15 C10.05 15 5.1 15 0 15 C0 10.05 0 5.1 0 0 Z " fill="#FFFFFF" transform="translate(195,15)"/>
<path d="M0 0 C4.95 0 9.9 0 15 0 C15 4.95 15 9.9 15 15 C10.05 15 5.1 15 0 15 C0 10.05 0 5.1 0 0 Z " fill="#EEEEEE" transform="translate(180,15)"/>
<path d="M0 0 C4.95 0 9.9 0 15 0 C15 4.95 15 9.9 15 15 C10.05 15 5.1 15 0 15 C0 10.05 0 5.1 0 0 Z " fill="#FFFFFF" transform="translate(165,15)"/>
<path d="M0 0 C4.95 0 9.9 0 15 0 C15 4.95 15 9.9 15 15 C10.05 15 5.1 15 0 15 C0 10.05 0 5.1 0 0 Z " fill="#EEEEEE" transform="translate(150,15)"/>
<path d="M0 0 C4.95 0 9.9 0 15 0 C15 4.95 15 9.9 15 15 C10.05 15 5.1 15 0 15 C0 10.05 0 5.1 0 0 Z " fill="#FFFFFF" transform="translate(135,15)"/>
<path d="M0 0 C4.95 0 9.9 0 15 0 C15 4.95 15 9.9 15 15 C10.05 15 5.1 15 0 15 C0 10.05 0 5.1 0 0 Z " fill="#EEEEEE" transform="translate(120,15)"/>
<path d="M0 0 C4.95 0 9.9 0 15 0 C15 4.95 15 9.9 15 15 C10.05 15 5.1 15 0 15 C0 10.05 0 5.1 0 0 Z " fill="#FFFFFF" transform="translate(105,15)"/>
<path d="M0 0 C4.95 0 9.9 0 15 0 C15 4.95 15 9.9 15 15 C10.05 15 5.1 15 0 15 C0 10.05 0 5.1 0 0 Z " fill="#EEEEEE" transform="translate(90,15)"/>
<path d="M0 0 C4.95 0 9.9 0 15 0 C15 4.95 15 9.9 15 15 C10.05 15 5.1 15 0 15 C0 10.05 0 5.1 0 0 Z " fill="#FFFFFF" transform="translate(75,15)"/>
<path d="M0 0 C4.95 0 9.9 0 15 0 C15 4.95 15 9.9 15 15 C10.05 15 5.1 15 0 15 C0 10.05 0 5.1 0 0 Z " fill="#EEEEEE" transform="translate(60,15)"/>
<path d="M0 0 C4.95 0 9.9 0 15 0 C15 4.95 15 9.9 15 15 C10.05 15 5.1 15 0 15 C0 10.05 0 5.1 0 0 Z " fill="#FFFFFF" transform="translate(45,15)"/>
<path d="M0 0 C4.95 0 9.9 0 15 0 C15 4.95 15 9.9 15 15 C10.05 15 5.1 15 0 15 C0 10.05 0 5.1 0 0 Z " fill="#EEEEEE" transform="translate(30,15)"/>
<path d="M0 0 C4.95 0 9.9 0 15 0 C15 4.95 15 9.9 15 15 C10.05 15 5.1 15 0 15 C0 10.05 0 5.1 0 0 Z " fill="#FFFFFF" transform="translate(15,15)"/>
<path d="M0 0 C4.95 0 9.9 0 15 0 C15 4.95 15 9.9 15 15 C10.05 15 5.1 15 0 15 C0 10.05 0 5.1 0 0 Z " fill="#EEEEEE" transform="translate(0,15)"/>
<path d="M0 0 C4.95 0 9.9 0 15 0 C15 4.95 15 9.9 15 15 C10.05 15 5.1 15 0 15 C0 10.05 0 5.1 0 0 Z " fill="#EEEEEE" transform="translate(345,0)"/>
<path d="M0 0 C4.95 0 9.9 0 15 0 C15 4.95 15 9.9 15 15 C10.05 15 5.1 15 0 15 C0 10.05 0 5.1 0 0 Z " fill="#FFFFFF" transform="translate(330,0)"/>
<path d="M0 0 C4.95 0 9.9 0 15 0 C15 4.95 15 9.9 15 15 C10.05 15 5.1 15 0 15 C0 10.05 0 5.1 0 0 Z " fill="#EEEEEE" transform="translate(315,0)"/>
<path d="M0 0 C4.95 0 9.9 0 15 0 C15 4.95 15 9.9 15 15 C10.05 15 5.1 15 0 15 C0 10.05 0 5.1 0 0 Z " fill="#FFFFFF" transform="translate(300,0)"/>
<path d="M0 0 C4.95 0 9.9 0 15 0 C15 4.95 15 9.9 15 15 C10.05 15 5.1 15 0 15 C0 10.05 0 5.1 0 0 Z " fill="#EEEEEE" transform="translate(225,0)"/>
<path d="M0 0 C4.95 0 9.9 0 15 0 C15 4.95 15 9.9 15 15 C10.05 15 5.1 15 0 15 C0 10.05 0 5.1 0 0 Z " fill="#FFFFFF" transform="translate(210,0)"/>
<path d="M0 0 C4.95 0 9.9 0 15 0 C15 4.95 15 9.9 15 15 C10.05 15 5.1 15 0 15 C0 10.05 0 5.1 0 0 Z " fill="#EEEEEE" transform="translate(195,0)"/>
<path d="M0 0 C4.95 0 9.9 0 15 0 C15 4.95 15 9.9 15 15 C10.05 15 5.1 15 0 15 C0 10.05 0 5.1 0 0 Z " fill="#FFFFFF" transform="translate(180,0)"/>
<path d="M0 0 C4.95 0 9.9 0 15 0 C15 4.95 15 9.9 15 15 C10.05 15 5.1 15 0 15 C0 10.05 0 5.1 0 0 Z " fill="#EEEEEE" transform="translate(165,0)"/>
<path d="M0 0 C4.95 0 9.9 0 15 0 C15 4.95 15 9.9 15 15 C10.05 15 5.1 15 0 15 C0 10.05 0 5.1 0 0 Z " fill="#FFFFFF" transform="translate(150,0)"/>
<path d="M0 0 C4.95 0 9.9 0 15 0 C15 4.95 15 9.9 15 15 C10.05 15 5.1 15 0 15 C0 10.05 0 5.1 0 0 Z " fill="#EEEEEE" transform="translate(135,0)"/>
<path d="M0 0 C4.95 0 9.9 0 15 0 C15 4.95 15 9.9 15 15 C10.05 15 5.1 15 0 15 C0 10.05 0 5.1 0 0 Z " fill="#FFFFFF" transform="translate(120,0)"/>
<path d="M0 0 C4.95 0 9.9 0 15 0 C15 4.95 15 9.9 15 15 C10.05 15 5.1 15 0 15 C0 10.05 0 5.1 0 0 Z " fill="#EEEEEE" transform="translate(105,0)"/>
<path d="M0 0 C4.95 0 9.9 0 15 0 C15 4.95 15 9.9 15 15 C10.05 15 5.1 15 0 15 C0 10.05 0 5.1 0 0 Z " fill="#FFFFFF" transform="translate(90,0)"/>
<path d="M0 0 C4.95 0 9.9 0 15 0 C15 4.95 15 9.9 15 15 C10.05 15 5.1 15 0 15 C0 10.05 0 5.1 0 0 Z " fill="#EEEEEE" transform="translate(75,0)"/>
<path d="M0 0 C4.95 0 9.9 0 15 0 C15 4.95 15 9.9 15 15 C10.05 15 5.1 15 0 15 C0 10.05 0 5.1 0 0 Z " fill="#FFFFFF" transform="translate(60,0)"/>
<path d="M0 0 C4.95 0 9.9 0 15 0 C15 4.95 15 9.9 15 15 C10.05 15 5.1 15 0 15 C0 10.05 0 5.1 0 0 Z " fill="#EEEEEE" transform="translate(45,0)"/>
<path d="M0 0 C4.95 0 9.9 0 15 0 C15 4.95 15 9.9 15 15 C10.05 15 5.1 15 0 15 C0 10.05 0 5.1 0 0 Z " fill="#FFFFFF" transform="translate(30,0)"/>
<path d="M0 0 C4.95 0 9.9 0 15 0 C15 4.95 15 9.9 15 15 C10.05 15 5.1 15 0 15 C0 10.05 0 5.1 0 0 Z " fill="#FFFFFF" transform="translate(0,0)"/>
<path d="M0 0 C4.95 0 9.9 0 15 0 C15 4.95 15 9.9 15 15 C4.16015625 15.09765625 4.16015625 15.09765625 1 15 C0 14 0 14 -0.09765625 10.83984375 C-0.04882812 5.41992188 -0.04882812 5.41992188 0 0 Z " fill="#EEEEEE" transform="translate(90,105)"/>
<path d="M0 0 C4.95 0 9.9 0 15 0 C15 4.95 15 9.9 15 15 C4.42857143 16.57142857 4.42857143 16.57142857 -1 13 C-0.67 8.71 -0.34 4.42 0 0 Z " fill="#EEEEEE" transform="translate(345,30)"/>
<path d="M0 0 C4.62 0 9.24 0 14 0 C14 4.95 14 9.9 14 15 C9.38 15 4.76 15 0 15 C0 10.05 0 5.1 0 0 Z " fill="#FFFFFF" transform="translate(255,225)"/>
<path d="M0 0 C4.62 0 9.24 0 14 0 C14 4.95 14 9.9 14 15 C9.38 15 4.76 15 0 15 C0 10.05 0 5.1 0 0 Z " fill="#FFFFFF" transform="translate(255,195)"/>
<path d="M0 0 C4.62 0 9.24 0 14 0 C14 4.95 14 9.9 14 15 C9.38 15 4.76 15 0 15 C0 10.05 0 5.1 0 0 Z " fill="#FFFFFF" transform="translate(255,165)"/>
<path d="M0 0 C4.62 0 9.24 0 14 0 C14 4.95 14 9.9 14 15 C9.38 15 4.76 15 0 15 C0 10.05 0 5.1 0 0 Z " fill="#FFFFFF" transform="translate(255,135)"/>
<path d="M0 0 C7.5964975 -0.81808435 7.5964975 -0.81808435 11.19140625 1.27734375 C13.90502825 3.69493426 15.8635762 5.51993051 16.20703125 9.24609375 C15.9375 11.4375 15.9375 11.4375 15 15 C10.05 15 5.1 15 0 15 C0 10.05 0 5.1 0 0 Z " fill="#FFFFFF" transform="translate(0,240)"/>
<path d="M0 0 C4.95 0 9.9 0 15 0 C15 4.29 15 8.58 15 13 C10.52328567 12.10465713 7.67678319 10.99789901 3.6875 8.9375 C2.61886719 8.38964844 1.55023438 7.84179688 0.44921875 7.27734375 C-0.76314453 6.64505859 -0.76314453 6.64505859 -2 6 C-1.34 5.67 -0.68 5.34 0 5 C0 3.35 0 1.7 0 0 Z " fill="#FEFEFE" transform="translate(270,0)"/>
<path d="M0 0 C4.95 0 9.9 0 15 0 C13.38405168 2.04119788 11.7143618 4.04072937 10 6 C9.34 6 8.68 6 8 6 C8.33 8.97 8.66 11.94 9 15 C6.03 15 3.06 15 0 15 C0 10.05 0 5.1 0 0 Z " fill="#EAEDEE" transform="translate(0,225)"/>
<path d="M0 0 C4.95 0 9.9 0 15 0 C15 2.97 15 5.94 15 9 C10.05 9 5.1 9 0 9 C0 6.03 0 3.06 0 0 Z " fill="#FFFFFF" transform="translate(345,345)"/>
<path d="M0 0 C4.95 0 9.9 0 15 0 C15 2.97 15 5.94 15 9 C10.05 9 5.1 9 0 9 C0 6.03 0 3.06 0 0 Z " fill="#EEEEEE" transform="translate(330,345)"/>
<path d="M0 0 C4.95 0 9.9 0 15 0 C15 2.97 15 5.94 15 9 C10.05 9 5.1 9 0 9 C0 6.03 0 3.06 0 0 Z " fill="#FFFFFF" transform="translate(315,345)"/>
<path d="M0 0 C4.95 0 9.9 0 15 0 C15 2.97 15 5.94 15 9 C10.05 9 5.1 9 0 9 C0 6.03 0 3.06 0 0 Z " fill="#EEEEEE" transform="translate(300,345)"/>
<path d="M0 0 C4.95 0 9.9 0 15 0 C15 2.97 15 5.94 15 9 C10.05 9 5.1 9 0 9 C0 6.03 0 3.06 0 0 Z " fill="#FFFFFF" transform="translate(285,345)"/>
<path d="M0 0 C4.95 0 9.9 0 15 0 C15 2.97 15 5.94 15 9 C10.05 9 5.1 9 0 9 C0 6.03 0 3.06 0 0 Z " fill="#FFFFFF" transform="translate(225,345)"/>
<path d="M0 0 C4.95 0 9.9 0 15 0 C15 2.97 15 5.94 15 9 C10.05 9 5.1 9 0 9 C0 6.03 0 3.06 0 0 Z " fill="#EEEEEE" transform="translate(210,345)"/>
<path d="M0 0 C4.95 0 9.9 0 15 0 C15 2.97 15 5.94 15 9 C10.05 9 5.1 9 0 9 C0 6.03 0 3.06 0 0 Z " fill="#FFFFFF" transform="translate(195,345)"/>
<path d="M0 0 C4.95 0 9.9 0 15 0 C15 2.97 15 5.94 15 9 C10.05 9 5.1 9 0 9 C0 6.03 0 3.06 0 0 Z " fill="#EEEEEE" transform="translate(180,345)"/>
<path d="M0 0 C4.95 0 9.9 0 15 0 C15 2.97 15 5.94 15 9 C10.05 9 5.1 9 0 9 C0 6.03 0 3.06 0 0 Z " fill="#FFFFFF" transform="translate(165,345)"/>
<path d="M0 0 C4.95 0 9.9 0 15 0 C15 2.97 15 5.94 15 9 C10.05 9 5.1 9 0 9 C0 6.03 0 3.06 0 0 Z " fill="#EEEEEE" transform="translate(150,345)"/>
<path d="M0 0 C4.95 0 9.9 0 15 0 C15 2.97 15 5.94 15 9 C10.05 9 5.1 9 0 9 C0 6.03 0 3.06 0 0 Z " fill="#FFFFFF" transform="translate(135,345)"/>
<path d="M0 0 C4.95 0 9.9 0 15 0 C15 2.97 15 5.94 15 9 C10.05 9 5.1 9 0 9 C0 6.03 0 3.06 0 0 Z " fill="#EEEEEE" transform="translate(120,345)"/>
<path d="M0 0 C4.95 0 9.9 0 15 0 C15 2.97 15 5.94 15 9 C10.05 9 5.1 9 0 9 C0 6.03 0 3.06 0 0 Z " fill="#FFFFFF" transform="translate(105,345)"/>
<path d="M0 0 C4.95 0 9.9 0 15 0 C15 2.97 15 5.94 15 9 C10.05 9 5.1 9 0 9 C0 6.03 0 3.06 0 0 Z " fill="#EEEEEE" transform="translate(90,345)"/>
<path d="M0 0 C4.95 0 9.9 0 15 0 C15 2.97 15 5.94 15 9 C10.05 9 5.1 9 0 9 C0 6.03 0 3.06 0 0 Z " fill="#FFFFFF" transform="translate(75,345)"/>
<path d="M0 0 C4.95 0 9.9 0 15 0 C15 2.97 15 5.94 15 9 C10.05 9 5.1 9 0 9 C0 6.03 0 3.06 0 0 Z " fill="#EEEEEE" transform="translate(60,345)"/>
<path d="M0 0 C4.95 0 9.9 0 15 0 C15 2.97 15 5.94 15 9 C10.05 9 5.1 9 0 9 C0 6.03 0 3.06 0 0 Z " fill="#FFFFFF" transform="translate(45,345)"/>
<path d="M0 0 C4.95 0 9.9 0 15 0 C15 2.97 15 5.94 15 9 C10.05 9 5.1 9 0 9 C0 6.03 0 3.06 0 0 Z " fill="#EEEEEE" transform="translate(30,345)"/>
<path d="M0 0 C4.95 0 9.9 0 15 0 C15 2.97 15 5.94 15 9 C10.05 9 5.1 9 0 9 C0 6.03 0 3.06 0 0 Z " fill="#FFFFFF" transform="translate(15,345)"/>
<path d="M0 0 C4.95 0 9.9 0 15 0 C15 2.97 15 5.94 15 9 C10.05 9 5.1 9 0 9 C0 6.03 0 3.06 0 0 Z " fill="#EEEEEE" transform="translate(0,345)"/>
<path d="M0 0 C4.62 0 9.24 0 14 0 C14 3 14 3 11.375 5.69921875 C10.25745974 6.70367458 9.13208967 7.69947129 8 8.6875 C7.42765625 9.19861328 6.8553125 9.70972656 6.265625 10.23632812 C4.85032787 11.4983014 3.42599731 12.75013033 2 14 C1.34 13.67 0.68 13.34 0 13 C0 8.71 0 4.42 0 0 Z " fill="#EDEEEF" transform="translate(15,210)"/>
<path d="M0 0 C4.25310114 1.06327529 5.15813402 1.81953984 8.0625 4.875 C8.73410156 5.57367188 9.40570313 6.27234375 10.09765625 6.9921875 C10.72542969 7.65476563 11.35320312 8.31734375 12 9 C12.99664994 10.00333887 13.99531624 11.0047058 15 12 C14 13 14 13 10.83984375 13.09765625 C8.90818359 13.08025391 8.90818359 13.08025391 6.9375 13.0625 C5.64714844 13.05347656 4.35679687 13.04445312 3.02734375 13.03515625 C2.02832031 13.02355469 1.02929688 13.01195312 0 13 C0 8.71 0 4.42 0 0 Z " fill="#EFEFEF" transform="translate(135,242)"/>
<path d="M0 0 C4.62 0 9.24 0 14 0 C14 0.66 14 1.32 14 2 C12.390625 3.5859375 12.390625 3.5859375 10.25 5.375 C7.93096298 7.33757727 5.74780716 9.2588295 3.625 11.4375 C2 13 2 13 0 13 C0 8.71 0 4.42 0 0 Z " fill="#FEFEFE" transform="translate(165,75)"/>
<path d="M0 0 C4.21734247 1.05433562 5.60116528 2.09222941 8.75 4.9375 C9.54921875 5.64777344 10.3484375 6.35804688 11.171875 7.08984375 C13 9 13 9 13 11 C8.71 11 4.42 11 0 11 C0 7.37 0 3.74 0 0 Z " fill="#EFEFEF" transform="translate(120,229)"/>
<path d="M0 0 C0 3.63 0 7.26 0 11 C-4.29 11 -8.58 11 -13 11 C-11.87951514 6.51806055 -11.1609391 5.92770145 -7.625 3.25 C-6.83351562 2.63640625 -6.04203125 2.0228125 -5.2265625 1.390625 C-3 0 -3 0 0 0 Z " fill="#EFEFEF" transform="translate(240,124)"/>
<path d="M0 0 C4.95 0 9.9 0 15 0 C15 1.65 15 3.3 15 5 C12.66666667 5.33333333 10.33333333 5.66666667 8 6 C6.72125 6.20625 5.4425 6.4125 4.125 6.625 C3.09375 6.74875 2.0625 6.8725 1 7 C0.67 6.67 0.34 6.34 0 6 C0 4.02 0 2.04 0 0 Z " fill="#EEEEEE" transform="translate(255,0)"/>
<path d="M0 0 C4.29 0 8.58 0 13 0 C9.26704728 4.53287116 5.61513452 8.37382288 1 12 C0.34 11.67 -0.32 11.34 -1 11 C-0.67 7.37 -0.34 3.74 0 0 Z " fill="#FEFEFE" transform="translate(150,90)"/>
<path d="M0 0 C3.63 0 7.26 0 11 0 C9.86349426 3.40951722 8.74186875 4.37636276 6.0625 6.6875 C5.35222656 7.31011719 4.64195312 7.93273437 3.91015625 8.57421875 C2 10 2 10 0 10 C0 6.7 0 3.4 0 0 Z " fill="#FEFEFE" transform="translate(135,105)"/>
<path d="M0 0 C3.60854389 1.80427195 5.81311066 3.44724796 8.75 6.125 C9.94882813 7.21167969 9.94882813 7.21167969 11.171875 8.3203125 C11.77515625 8.87460937 12.3784375 9.42890625 13 10 C12.67 10.66 12.34 11.32 12 12 C11.34 11.34 10.68 10.68 10 10 C7.79749008 9.53993654 7.79749008 9.53993654 5.375 9.375 C3.93125 9.25125 2.4875 9.1275 1 9 C0.67 6.03 0.34 3.06 0 0 Z " fill="#FDFDFD" transform="translate(239,336)"/>
<path d="M0 0 C3.63 0 7.26 0 11 0 C11.33 2.97 11.66 5.94 12 9 C8.89383788 7.44691894 6.48417379 5.99825692 3.75 3.9375 C3.04359375 3.41027344 2.3371875 2.88304687 1.609375 2.33984375 C1.07828125 1.89769531 0.5471875 1.45554688 0 1 C0 0.67 0 0.34 0 0 Z " fill="#FDFDFD" transform="translate(229,225)"/>
<path d="M0 0 C3.3 0 6.6 0 10 0 C4.5 6.75 4.5 6.75 0 9 C0 6.03 0 3.06 0 0 Z " fill="#FEFEFE" transform="translate(120,120)"/>
<path d="M0 0 C0.556875 0.28875 1.11375 0.5775 1.6875 0.875 C6.11581338 3.02931462 10.10308969 4.31671019 15 5 C11.47320901 7.35119399 9.97120515 7.21443452 5.8125 7.125 C4.72582031 7.10695313 3.63914063 7.08890625 2.51953125 7.0703125 C1.27236328 7.03550781 1.27236328 7.03550781 0 7 C0 4.69 0 2.38 0 0 Z " fill="#E6EAED" transform="translate(30,263)"/>
<path d="M0 0 C0.99 0 1.98 0 3 0 C3 4.95 3 9.9 3 15 C2.01 15.33 1.02 15.66 0 16 C0 10.72 0 5.44 0 0 Z " fill="#FFFFFF" transform="translate(357,285)"/>
<path d="M0 0 C0 2.31 0 4.62 0 7 C-2.97 7 -5.94 7 -9 7 C-9.33 6.34 -9.66 5.68 -10 5 C-2.74193548 0 -2.74193548 0 0 0 Z " fill="#F0F0F0" transform="translate(255,113)"/>
<path d="M0 0 C2.97 0 5.94 0 9 0 C9 2.31 9 4.62 9 7 C5.13066838 6.42676569 2.84777943 4.61046448 0 2 C0 1.34 0 0.68 0 0 Z " fill="#F0F0F0" transform="translate(171,180)"/>
<path d="M0 0 C0 2.31 0 4.62 0 7 C-3.63 7.33 -7.26 7.66 -11 8 C-3.21621622 0 -3.21621622 0 0 0 Z " fill="#FEFEFE" transform="translate(195,158)"/>
<path d="M0 0 C1.98 1.65 3.96 3.3 6 5 C4.48601545 8.78496138 3.9855604 9.0072198 0 11 C0 7.37 0 3.74 0 0 Z " fill="#F5F5F5" transform="translate(60,172)"/>
<path d="M0 0 C0.81210938 0.24556641 0.81210938 0.24556641 1.640625 0.49609375 C4.40222593 1.08590587 6.92818139 1.09609308 9.75 1.0625 C10.73484375 1.05347656 11.7196875 1.04445313 12.734375 1.03515625 C13.48203125 1.02355469 14.2296875 1.01195312 15 1 C15 1.99 15 2.98 15 4 C10.05 4 5.1 4 0 4 C0 2.68 0 1.36 0 0 Z " fill="#FBFBFB" transform="translate(255,350)"/>
<path d="M0 0 C3.63 0 7.26 0 11 0 C11.33 1.98 11.66 3.96 12 6 C7.76570244 4.68938409 3.92592596 3.05643741 0 1 C0 0.67 0 0.34 0 0 Z " fill="#FFFFFF" transform="translate(289,15)"/>
<path d="M0 0 C1.8125 0.1875 1.8125 0.1875 4 1 C7 5.28571429 7 5.28571429 7 7 C4.69 7 2.38 7 0 7 C0 4.69 0 2.38 0 0 Z " fill="#E9ECEE" transform="translate(15,248)"/>
<path d="M0 0 C0.66 0.33 1.32 0.66 2 1 C1.67 2.98 1.34 4.96 1 7 C-1.97 7 -4.94 7 -8 7 C-5.42215154 4.35247996 -3.08351902 2.05567935 0 0 Z " fill="#FEFEFE" transform="translate(74,248)"/>
<path d="M0 0 C2.5 1.25 2.5 1.25 4.5 4.25 C0.87 4.25 -2.76 4.25 -6.5 4.25 C-3.80434783 -1.14130435 -3.80434783 -1.14130435 0 0 Z " fill="#F1F1F1" transform="translate(113.5,220.75)"/>
<path d="M0 0 C3.7952131 1.49097658 5.61042731 3.75700849 8 7 C5.36 7 2.72 7 0 7 C0 4.69 0 2.38 0 0 Z " fill="#FEFEFE" transform="translate(225,323)"/>
<path d="M0 0 C2.31 0 4.62 0 7 0 C7 1.98 7 3.96 7 6 C2.32307692 4.52307692 2.32307692 4.52307692 0.6875 1.875 C0.460625 1.25625 0.23375 0.6375 0 0 Z " fill="#F0F0F0" transform="translate(53,90)"/>
<path d="M0 0 C1.34173403 0.92543709 2.67320159 1.86577405 4 2.8125 C5.11375 3.59560547 5.11375 3.59560547 6.25 4.39453125 C6.8275 4.92433594 7.405 5.45414062 8 6 C8 6.99 8 7.98 8 9 C7.34 8.34 6.68 7.68 6 7 C4.01178687 6.60235737 2.01055661 6.26224651 0 6 C0 4.02 0 2.04 0 0 Z " fill="#FCFCFC" transform="translate(210,309)"/>
<path d="M0 0 C2.64 0 5.28 0 8 0 C7.67 1.65 7.34 3.3 7 5 C4.69 4.01 2.38 3.02 0 2 C0 1.34 0 0.68 0 0 Z " fill="#EFEFEF" transform="translate(322,30)"/>
<path d="M0 0 C2.475 0.99 2.475 0.99 5 2 C5 2.99 5 3.98 5 5 C3.35 5 1.7 5 0 5 C0 3.35 0 1.7 0 0 Z " fill="#EFEFEF" transform="translate(45,160)"/>
<path d="M0 0 C1.98 0 3.96 0 6 0 C6.66 1.98 7.32 3.96 8 6 C4.63408134 4.55746343 2.48952921 2.66735273 0 0 Z " fill="#FDFDFD" transform="translate(249,240)"/>
<path d="M0 0 C0 3 0 3 -1.375 4.6875 C-3 6 -3 6 -5 6 C-5 4.35 -5 2.7 -5 1 C-3.35 0.67 -1.7 0.34 0 0 Z " fill="#FCFCFC" transform="translate(35,89)"/>
</svg>
